<?xml version="1.0" standalone="no"?>
<!DOCTYPE svg PUBLIC "-//W3C//DTD SVG 1.1//EN" "http://www.w3.org/Graphics/SVG/1.1/DTD/svg11.dtd">
<svg xmlns="http://www.w3.org/2000/svg">
<defs >
<font id="Aleo" horiz-adv-x="533" ><font-face
    font-family="Aleo Light"
    units-per-em="1000"
    panose-1="0 0 4 0 0 0 0 0 0 0"
    ascent="805"
    descent="-195"
    alphabetic="0" />
<glyph unicode=" " glyph-name="space" horiz-adv-x="218" />
<glyph unicode="!" glyph-name="exclam" horiz-adv-x="216" d="M139 382T131 328T116 244H83Q85 284 89 333T98 422L133 708H180L144 422Q139 382 131 328ZM49 -8T38 4T26 35Q26 54 42 69T78 85Q97 85 108 71T118 39Q117 20 102 6T67 -8Q49 -8 38 4Z" />
<glyph unicode="&quot;" glyph-name="quotedbl" horiz-adv-x="323" d="M99 485Q97 478 92 473T80 467Q66 467 66 485L71 562L89 708H130L112 562L99 485ZM244 485Q242 478 237 473T225 467Q211 467 211 485L216 562L234 708H275L257 562L244 485Z" />
<glyph unicode="#" glyph-name="numbersign" horiz-adv-x="577" d="M263 0Q255 0 252 4T249 16L318 222H169L101 20Q96 9 91 5T76 0H55L129 222H37Q29 222 26 226T24 236L29 256H138L203 451H77L82 470Q86 486 106 486H212L281 688Q288 708 306 708H327L252 486H401L476
708H497Q513 708 511 692L441 486H554L549 468Q544 451 524 451H432L367 256H480Q488 256 491 254T493 244L488 222H358L284 0H263ZM392 451H243L178 256H327L392 451Z" />
<glyph unicode="$" glyph-name="dollar" horiz-adv-x="525" d="M80 -2T13 84L29 104Q36 112 42 112Q50 112 54 106Q90 70 125 52T204 32L259 350Q177 376 138 410T99 505Q99 566 129 612T211 685T321 714L336 798Q338 804 342 809T353 814H371L353 713Q446 707
502 641L489 624Q481 616 475 616Q468 616 460 624Q439 645 410 657T346 673L297 387Q359 367 395 348T450 301T470 229Q470 214 469 206Q456 112 392 55T229 -8L210 -113Q207 -128 194 -128H176L197 -8Q80 -2 13 84ZM145 473T176 446T266 398L314 674Q267 672
228 651T167 595T145 517Q145 473 176 446ZM424 205T424 217Q424 266 389 293T289 341L236 32Q312 37 362 81T423 199Q424 205 424 217Z" />
<glyph unicode="%" glyph-name="percent" horiz-adv-x="730" d="M337 457T292 409T178 361Q115 361 82 401T49 505Q49 516 51 538Q62 620 107 668T221 716Q282 716 316 676T350 572Q350 550 348 538Q337 457 292 409ZM639 702T645 705T656 708H690L96 9Q89 0 78
0H44L637 698Q639 702 645 705ZM312 560T312 570Q312 624 289 653T217 683Q161 683 129 642T89 538Q87 516 87 507Q87 454 110 424T182 393Q236 393 269 432T310 538Q312 560 312 570ZM674 87T629 40T515 -8Q452 -8 419 32T386 135Q386 157 388 168Q399 249 443
297T558 346Q620 346 654 307T688 203Q688 186 685 168Q674 87 629 40ZM649 190T649 200Q649 255 626 284T555 314Q498 314 466 272T426 168Q424 146 424 136Q424 85 447 55T519 24Q573 24 606 63T647 168Q649 190 649 200Z" />
<glyph unicode="&amp;" glyph-name="ampersand" horiz-adv-x="662" d="M412 716T447 697T503 646T519 574L497 569H492Q479 569 477 580Q472 623 442 650T367 678Q324 678 290 659T236 607T217 534Q217 497 233 464T284 394L480 174Q504 205 523 245T552 324Q556
338 566 338H594Q586 288 563 239T505 146L636 0H591Q575 0 565 11L475 112Q426 58 353 25T209 -8Q157 -8 116 13T51 72T27 157Q27 165 29 181Q39 253 94 310T224 394Q197 431 184 461T171 526Q171 581 198 624T270 691T371 716Q412 716 447 697ZM77 105T118 68T221
31Q286 31 344 58T451 138L244 369Q171 340 124 284T77 165Q77 105 118 68Z" />
<glyph unicode="&apos;" glyph-name="quotesingle" horiz-adv-x="178" d="M99 485Q97 478 92 473T80 467Q66 467 66 485L71 562L89 708H130L112 562L99 485Z" />
<glyph unicode="(" glyph-name="parenleft" horiz-adv-x="282" d="M83 53T159 -98Q161 -104 161 -106Q161 -114 152 -120L130 -133Q41 31 41 202Q41 364 89 496T240 763L259 750Q265 747 265 741Q265 734 260 729Q173 614 128 485T83 223Q83 53 159 -98Z" />
<glyph unicode=")" glyph-name="parenright" horiz-adv-x="288" d="M199 577T123 728Q121 734 121 736Q121 744 130 750L152 763Q241 599 241 428Q241 266 193 134T42 -133L23 -120Q17 -117 17 -111Q17 -104 22 -99Q109 16 154 145T199 407Q199 577 123 728Z" />
<glyph unicode="*" glyph-name="asterisk" horiz-adv-x="372" d="M175 573T182 585Q174 574 167 570T156 565L55 510L46 532L146 587Q155 593 176 597Q160 600 149 607L60 662L76 685L164 630Q175 624 186 607Q180 625 182 639L195 746H221L208 640Q206 625 198
608Q210 623 224 630L325 684L335 662L235 608Q224 602 218 600T204 597Q223 594 232 588L320 532L305 510L216 565Q206 571 195 586Q196 579 197 571T198 556L185 448H159L172 555Q175 573 182 585Z" />
<glyph unicode="+" glyph-name="plus" horiz-adv-x="551" d="M514 354L510 317H294L266 90H227L255 317H40L44 354H259L287 579H326L298 354H514Z" />
<glyph unicode="," glyph-name="comma" horiz-adv-x="226" d="M71 59T86 72T119 85Q138 85 148 73T159 42L158 31Q152 -11 126 -54T63 -126L56 -119Q52 -113 52 -112Q52 -108 59 -101Q77 -87 96 -57T122 0Q116 -2 107 -2Q88 -2 78 10T70 42Q71 59 86 72Z" />
<glyph unicode="-" glyph-name="hyphen" horiz-adv-x="363" d="M296 276H64L69 317H301L296 276Z" />
<glyph unicode="." glyph-name="period" horiz-adv-x="220" d="M81 -8T70 4T58 35Q58 54 74 69T110 85Q129 85 140 71T150 39Q149 20 134 6T99 -8Q81 -8 70 4Z" />
<glyph unicode="/" glyph-name="slash" horiz-adv-x="493" d="M66 -32T57 -37T39 -42H20L423 709Q434 728 452 728H472L70 -22Q66 -32 57 -37Z" />
<glyph unicode="0" glyph-name="zero" horiz-adv-x="606" d="M543 250T505 168T404 39T258 -8Q149 -8 97 69T44 271Q44 319 49 354Q62 456 99 537T199 667T347 716Q453 716 507 639T562 437Q562 396 556 354Q543 250 505 168ZM511 390T511 438Q511 547 470 611T342
676Q237 676 177 584T98 354Q93 319 93 273Q93 166 134 100T263 33Q365 33 427 123T506 354Q511 390 511 438Z" />
<glyph unicode="1" glyph-name="one" horiz-adv-x="414" d="M24 16Q26 30 42 31L189 38L260 611L265 647L92 508Q87 504 80 504Q72 504 68 510L56 530L282 710H319L237 38L374 31Q390 29 389 16L387 0H22L24 16Z" />
<glyph unicode="2" glyph-name="two" horiz-adv-x="563" d="M478 0H22L24 17Q27 29 36 38L308 282Q391 357 430 409T477 523Q478 531 478 546Q478 607 441 641T339 675Q275 675 225 638T155 537Q147 517 127 520L104 524Q127 613 191 664T346 715Q430 715 479
673T528 555Q528 498 506 452T447 367T341 263L92 37Q105 40 125 42T161 45H433L446 110Q451 134 471 134H495L478 0Z" />
<glyph unicode="3" glyph-name="three" horiz-adv-x="548" d="M410 716T459 674T509 562Q509 488 463 437T346 369Q414 356 449 318T485 221Q485 156 450 104T356 22T230 -8Q133 -8 84 36T22 173L41 181Q47 183 52 183Q67 183 70 171Q85 100 124 66T235 32Q284
32 328 54T401 113T435 193Q437 211 437 218Q437 285 387 315T249 346L253 380Q337 382 393 420T459 529Q460 537 460 551Q460 609 424 642T323 675Q259 675 209 638T138 538Q132 517 112 520L88 524Q112 615 176 665T330 716Q410 716 459 674Z" />
<glyph unicode="4" glyph-name="four" horiz-adv-x="579" d="M550 215Q549 203 535 203H419L394 0H351L376 203H43Q28 203 27 215L26 238L439 708H481L424 241H553L550 215ZM78 241H381L426 612L433 649L78 241Z" />
<glyph unicode="5" glyph-name="five" horiz-adv-x="538" d="M503 664T476 664H220L149 428Q176 435 212 439T272 444Q367 444 419 397T472 267Q472 244 470 232Q460 162 423 108T326 23T196 -8Q146 -8 100 9T20 55L37 74Q44 82 51 82Q59 82 70 74Q100 56 135
45T203 34Q267 34 317 63T396 143T424 258Q424 328 381 366T258 404Q231 404 194 398T127 384L98 394L192 708H510L507 687Q503 664 476 664Z" />
<glyph unicode="6" glyph-name="six" horiz-adv-x="527" d="M390 423T440 375T490 246Q490 235 488 213Q481 149 445 99T352 20T227 -8Q135 -8 84 44T32 187Q32 199 34 225Q39 271 71 326T150 436L375 696Q386 708 402 708H444L199 432L183 413Q146 369 138 358Q211
423 304 423Q390 423 440 375ZM77 116T118 74T232 32Q292 32 340 58T415 132T442 236Q442 305 401 345T287 386Q231 386 183 360T106 288T77 186Q77 116 118 74Z" />
<glyph unicode="7" glyph-name="seven" horiz-adv-x="557" d="M528 686Q526 672 519 661L116 18Q104 0 85 0H53L458 640L476 664H104L93 597Q89 573 68 573H44L61 707L531 708L528 686Z" />
<glyph unicode="8" glyph-name="eight" horiz-adv-x="551" d="M145 -8T87 37T28 160Q28 242 76 297T207 370Q152 387 125 424T97 515Q97 528 98 535Q105 589 136 630T217 693T325 716Q406 716 457 673T508 558Q508 489 468 439T358 370Q423 356 457 315T492 213Q492
205 490 187Q478 94 407 43T236 -8Q145 -8 87 37ZM337 387T377 408T439 468T461 554Q461 615 423 646T321 678Q270 678 230 657T167 599T144 514Q144 453 181 420T285 387Q337 387 377 408ZM298 30T344 52T416 116T443 214Q443 278 399 313T280 348Q199 348 144
306T79 188Q77 172 77 165Q77 103 122 67T241 30Q298 30 344 52Z" />
<glyph unicode="9" glyph-name="nine" horiz-adv-x="517" d="M139 301T91 348T42 471Q42 492 44 503Q52 563 88 612T179 688T296 716Q382 716 433 664T484 528Q484 516 482 494Q476 444 449 397T370 284L151 12Q142 0 125 0H82L327 292Q341 309 359 332T387 368Q317
301 220 301Q139 301 91 348ZM438 511T438 527Q438 594 398 635T290 676Q234 676 188 650T116 579T90 480Q90 414 130 376T238 338Q288 338 332 360T404 420T437 502Q438 511 438 527Z" />
<glyph unicode=":" glyph-name="colon" horiz-adv-x="235" d="M117 391T106 403T94 434Q94 453 110 468T146 484Q165 484 176 470T186 438Q185 419 170 405T135 391Q117 391 106 403ZM68 -8T57 4T45 35Q45 54 61 69T97 85Q116 85 127 71T137 39Q136 20 121 6T86
-8Q68 -8 57 4Z" />
<glyph unicode=";" glyph-name="semicolon" horiz-adv-x="243" d="M315 59T330 72T363 85Q382 85 392 73T403 42L402 31Q396 -11 370 -54T307 -126L300 -119Q296 -113 296 -112Q296 -108 303 -101Q321 -87 340 -57T366 0Q360 -2 351 -2Q332 -2 322 10T314 42Q315
59 330 72ZM127 391T116 403T104 434Q104 453 120 468T156 484Q175 484 186 470T196 438Q195 419 180 405T145 391Q127 391 116 403Z" />
<glyph unicode="&lt;" glyph-name="less" horiz-adv-x="482" d="M439 506Q437 496 424 488L130 348Q114 340 92 335Q114 330 127 323L386 182Q392 178 394 175T397 165L393 132L42 326L45 346L443 538L439 506Z" />
<glyph unicode="=" glyph-name="equal" horiz-adv-x="552" d="M493 398H79L84 434H497L493 398ZM474 241H60L65 278H478L474 241Z" />
<glyph unicode="&gt;" glyph-name="greater" horiz-adv-x="472" d="M38 164Q40 174 53 182L347 322Q363 330 385 335Q363 340 350 347L91 488Q85 492 83 495T80 505L84 538L435 344L432 324L34 132L38 164Z" />
<glyph unicode="?" glyph-name="question" horiz-adv-x="392" d="M70 677T117 696T208 716Q274 716 317 680T361 584Q361 530 334 487T261 414Q251 407 243 401T229 391Q197 369 184 356T166 325L150 243H118L126 331Q129 356 149 375T218 427Q261 455 285 487T315
562Q316 567 316 576Q316 622 283 649T199 676Q162 676 129 664T69 629Q60 622 56 622Q50 622 45 630L35 646Q70 677 117 696ZM85 -8T74 4T62 35Q62 54 78 69T114 85Q133 85 144 71T154 39Q153 20 138 6T103 -8Q85 -8 74 4Z" />
<glyph unicode="@" glyph-name="at" horiz-adv-x="806" d="M468 94T468 168Q468 178 469 184Q407 96 319 96Q272 96 248 123T224 200Q224 268 262 328T364 425T498 462Q520 462 545 457T588 444L521 270Q499 213 499 181Q499 126 558 126Q626 126 671 189T728
339Q731 363 731 386Q731 502 658 567T459 632Q363 632 280 584T143 454T77 274Q73 236 73 217Q73 125 112 57T222 -49T389 -86Q457 -86 524 -69T643 -19Q649 -17 650 -17Q654 -17 657 -19T661 -24L667 -42Q606 -81 533 -100T385 -119Q279 -119 200 -78T79 38T37
212Q37 246 41 274Q55 383 115 472T267 614T463 666Q553 666 622 632T729 534T767 386Q767 363 764 339Q757 276 728 220T651 129T548 94Q468 94 468 168ZM384 129T422 168T483 268L542 422Q538 423 527 425T508 429T488 430Q434 430 385 401T303 323T264 223Q262
211 262 204Q262 171 280 150T332 129Q384 129 422 168Z" />
<glyph unicode="A" glyph-name="A" horiz-adv-x="754" d="M758 37T756 20L753 0H533L536 20Q538 37 558 38L617 40L615 46L563 232H225L128 46L125 40L186 38Q206 37 204 20L201 0H-19L-16 20Q-14 37 6 38L70 40H72L75 46L427 708H478L667 46L669 40H674L738 38Q758
37 756 20ZM552 270L455 615Q454 622 451 633T446 656Q442 644 427 614L246 270H552Z" />
<glyph unicode="B" glyph-name="B" horiz-adv-x="639" d="M580 97T510 49T331 0H17L19 20Q20 36 41 38L106 40L183 669L119 671Q100 673 101 689L104 708H392Q606 708 606 552Q606 536 605 527Q598 467 552 423T440 362Q515 351 555 315T595 217Q595 209 593 193Q580
97 510 49ZM352 376Q432 376 489 415T554 522Q556 538 556 546Q556 668 387 668H234L198 376H352ZM544 210T544 216Q544 276 496 307T372 339H194L157 41H335Q425 41 478 79T542 194Q544 210 544 216Z" />
<glyph unicode="C" glyph-name="C" horiz-adv-x="655" d="M483 -8T325 -8Q234 -8 168 31T68 139T33 295Q33 327 37 354Q51 460 104 541T241 669T428 715Q530 715 648 665L628 505H604Q584 505 585 529L593 638Q523 671 423 671Q334 671 262 631T146 518T90 354Q87
327 87 301Q87 222 116 162T201 69T334 36Q403 36 454 54T555 114Q561 118 566 118Q571 118 574 115L591 94Q483 -8 325 -8Z" />
<glyph unicode="D" glyph-name="D" horiz-adv-x="763" d="M713 246T662 166T530 43T346 0H16L19 20Q20 36 41 38L106 40L183 668L119 670Q100 672 101 688L103 707H433Q527 707 594 671T696 568T731 415Q731 382 727 354Q713 246 662 166ZM678 392T678 410Q678
529 613 597T428 666H234L157 41H351Q440 41 509 79T620 188T674 354Q678 392 678 410Z" />
<glyph unicode="E" glyph-name="E" horiz-adv-x="622" d="M606 665L594 561H569Q550 561 551 585L557 665H234L199 379H480L475 338H194L157 43H480L494 122Q499 147 518 147H543L525 0H16L19 20Q20 36 41 38L106 40L183 668L119 670Q100 672 101 688L103 707H612L606
665Z" />
<glyph unicode="F" glyph-name="F" horiz-adv-x="629" d="M600 561H576Q556 561 557 585L563 665H234L197 368H462L456 325H192L157 40L221 38Q241 37 239 20L236 0H16L19 20Q20 36 41 38L106 40L183 668L119 670Q100 672 101 688L103 707H618L600 561Z" />
<glyph unicode="G" glyph-name="G" horiz-adv-x="696" d="M614 70Q548 28 482 10T336 -8Q243 -8 175 30T70 137T33 296Q33 327 37 354Q51 462 104 544T242 670T437 715Q493 715 563 701T679 665L660 505H636Q616 505 617 529L625 637Q557 671 430 671Q337 671
264 632T146 521T90 354Q87 326 87 299Q87 177 155 106T345 34Q411 34 460 46T570 91L593 282H457Q445 282 446 294L449 321H645L614 70Z" />
<glyph unicode="H" glyph-name="H" horiz-adv-x="827" d="M652 40L716 38Q735 37 733 20L731 0H511L513 20Q514 36 535 38L600 40L637 339H194L157 40L221 38Q241 37 239 20L236 0H16L19 20Q20 36 41 38L106 40L183 669L119 671Q100 673 101 689L103 708H323L321
689Q320 673 299 671L234 669L199 378H642L677 669L613 671Q594 673 595 689L598 708H818L815 689Q814 673 793 671L729 669L652 40Z" />
<glyph unicode="I" glyph-name="I" horiz-adv-x="332" d="M157 40L221 38Q241 37 239 20L236 0H16L19 20Q20 36 41 38L106 40L183 668L119 670Q100 672 101 688L103 708H323L321 688Q320 672 299 670L234 668L157 40Z" />
<glyph unicode="J" glyph-name="J" horiz-adv-x="503" d="M491 688Q490 672 469 670L405 668L352 236Q337 122 275 57T110 -8Q90 -8 65 -4T19 7L25 35Q28 45 39 45Q45 45 48 44Q93 35 111 35Q195 35 241 88T300 235L353 668L282 670Q263 672 264 688L267 708H494L491
688Z" />
<glyph unicode="K" glyph-name="K" horiz-adv-x="718" d="M721 688Q719 671 699 670L646 668L342 390Q321 371 306 365Q322 360 338 340L589 40L653 38Q673 37 671 20L668 0H448L451 20Q453 37 473 38L530 40L290 320Q279 334 268 337T239 341H194L157 40L221
38Q241 37 239 20L236 0H16L19 20Q21 37 41 38L105 40H106L183 668H182L118 670Q98 671 100 688L103 708H323L320 688Q318 671 298 670L234 668L199 381H241Q260 381 270 384T293 400L588 668H583L519 670Q499 671 501 688L504 708H724L721 688Z" />
<glyph unicode="L" glyph-name="L" horiz-adv-x="556" d="M496 0H16L19 20Q20 36 41 38L106 40L183 669L119 671Q100 673 101 689L103 708H323L320 689Q319 673 298 671L234 669L157 44H450L463 108Q467 132 488 132H512L496 0Z" />
<glyph unicode="M" glyph-name="M" horiz-adv-x="980" d="M805 40L869 38Q888 37 886 20L884 0H668L671 20Q672 36 693 38L760 40L829 603Q830 610 834 631L494 136Q485 123 473 123H465Q452 123 446 136L221 631Q221 621 219 603L150 40L216 38Q236 37 234 20L232
0H16L19 20Q20 36 41 38L106 40L183 669L119 671Q100 673 101 689L103 708H223Q231 708 234 707T241 699L466 206Q472 193 475 176Q489 202 493 207L831 699Q836 705 840 706T851 708H971L968 689Q967 673 946 671L882 669L805 40Z" />
<glyph unicode="N" glyph-name="N" horiz-adv-x="827" d="M815 689Q814 673 793 671L729 669L647 0H622Q611 0 605 10L220 624Q220 613 218 595L150 40L216 38Q236 37 234 20L232 0H16L19 20Q20 36 41 38L106 40L183 668L119 670Q100 672 101 688L103 708H213Q225
708 231 698L614 85Q614 96 616 114L684 669L617 671Q598 672 600 689L602 708H818L815 689Z" />
<glyph unicode="O" glyph-name="O" horiz-adv-x="747" d="M699 248T647 166T513 38T330 -8Q238 -8 171 31T69 139T33 296Q33 327 37 354Q51 460 103 542T238 670T419 716Q510 716 577 678T680 571T716 413Q716 381 712 354Q699 248 647 166ZM663 392T663 410Q663
531 598 601T413 672Q326 672 257 632T145 519T90 354Q86 314 86 298Q86 177 151 107T335 37Q426 37 495 78T606 190T659 354Q663 392 663 410Z" />
<glyph unicode="P" glyph-name="P" horiz-adv-x="604" d="M576 432T538 384T439 311T308 285H187L157 40L221 38Q240 37 238 20L236 0H16L19 20Q20 36 41 38L106 40L183 668L119 670Q100 672 101 688L103 707H360Q471 707 529 664T587 532Q587 521 585 497Q576
432 538 384ZM536 597T489 632T355 667H234L192 326H313Q377 326 427 351T507 421T536 527Q536 597 489 632Z" />
<glyph unicode="Q" glyph-name="Q" horiz-adv-x="747" d="M699 254T649 171T518 41L678 -156H635Q625 -156 617 -153T604 -144L473 19Q446 8 403 0T329 -8Q238 -8 172 30T69 136T33 294Q33 327 37 354Q50 459 102 541T237 670T418 716Q510 716 577 678T679 572T715
414Q715 381 711 354Q699 254 649 171ZM662 394T662 411Q662 531 597 601T413 672Q325 672 256 632T144 519T89 354Q86 326 86 300Q86 180 151 109T335 37Q425 37 494 78T605 191T658 354Q662 394 662 411Z" />
<glyph unicode="R" glyph-name="R" horiz-adv-x="644" d="M611 37T609 20L606 0H536Q521 0 512 13L321 300Q312 313 304 316T275 320H191L157 40L221 38Q240 37 238 20L236 0H16L19 20Q20 36 41 38L106 40L183 669L119 671Q100 673 101 689L103 708H359Q582 708
582 550Q582 487 552 439T471 362T355 326Q367 318 374 306L554 39L591 38Q611 37 609 20ZM408 358T469 406T531 541Q531 668 354 668H234L196 358H310Q408 358 469 406Z" />
<glyph unicode="S" glyph-name="S" horiz-adv-x="518" d="M451 141T416 93T326 18T207 -8Q109 -8 22 31L41 189H65Q86 189 84 165L76 62Q130 35 214 35Q293 35 347 79T412 199Q413 206 413 220Q413 255 395 277T345 314T252 350Q171 377 133 412T95 505Q95 566
125 614T208 688T324 715Q411 715 502 674L484 529H460Q439 529 441 554L448 648Q392 673 319 673Q270 673 230 653T167 598T144 519Q144 469 182 441T304 386Q383 360 422 326T462 233Q462 225 460 207Q451 141 416 93Z" />
<glyph unicode="T" glyph-name="T" horiz-adv-x="620" d="M591 561H567Q547 561 548 585L554 664H348L271 40L335 38Q355 37 353 20L351 0H131L134 20Q135 36 156 38L220 40L297 664H90L76 585Q72 561 52 561H28L46 707H609L591 561Z" />
<glyph unicode="U" glyph-name="U" horiz-adv-x="754" d="M232 -8T179 22T97 105T69 225Q69 248 72 270L120 669L56 671Q37 672 39 689L41 708H274L271 689Q270 673 249 671L172 669L123 270Q121 246 121 233Q121 145 171 91T311 36Q376 36 429 66T515 149T557
270L605 669L529 671Q510 673 511 689L514 708H746L743 689Q742 673 721 671L656 669L608 270Q598 189 557 126T450 28T305 -8Q232 -8 179 22Z" />
<glyph unicode="V" glyph-name="V" horiz-adv-x="755" d="M744 689Q743 673 722 671L683 669L325 0H279L86 669L47 671Q28 672 30 689L32 708H222L219 689Q218 673 197 671L139 669L301 107Q307 85 310 58Q319 84 331 107L629 669L571 671Q552 672 554 689L556
708H746L744 689Z" />
<glyph unicode="W" glyph-name="W" horiz-adv-x="1095" d="M1084 689Q1083 673 1062 671L1027 669L734 0H688L555 615Q553 624 551 640Q546 625 541 615L256 0H210L82 669L47 671Q28 672 30 689L32 708H222L219 689Q218 673 197 671L138 669L241 113Q245 85 245
67Q253 91 262 112L533 695Q540 708 554 708H568Q582 708 585 695L713 113L719 68L734 113L973 669L912 671Q893 673 894 689L896 708H1086L1084 689Z" />
<glyph unicode="X" glyph-name="X" horiz-adv-x="750" d="M666 37T664 20L662 0H470L472 20Q473 36 494 38L551 40L383 338Q381 333 374 324L139 40H140L201 38Q221 37 219 20L216 0H18L20 20Q21 36 42 38L83 40L350 363L172 669L132 671Q113 673 114 689L117
708H311L308 689Q307 673 286 671L231 669L391 387Q394 393 396 397T400 403L620 669L558 671Q539 672 541 689L543 708H741L739 689Q738 673 717 671L676 669L423 366L610 40L646 38Q666 37 664 20Z" />
<glyph unicode="Y" glyph-name="Y" horiz-adv-x="680" d="M668 689Q667 673 646 671L609 669L326 292L295 40L359 38Q379 37 377 20L374 0H154L157 20Q158 36 179 38L243 40L274 292L84 669L47 671Q28 672 30 689L32 708H217L214 689Q211 672 192 671L140 669L289
370Q293 362 305 326Q323 359 331 370L553 669L501 671Q482 673 483 689L486 708H670L668 689Z" />
<glyph unicode="Z" glyph-name="Z" horiz-adv-x="638" d="M626 682T617 670L91 42H491L508 127Q513 152 532 152H557L538 0H18L20 19Q22 28 28 36L556 666H165L148 581Q144 557 124 557H99L118 708H629L627 691Q626 682 617 670Z" />
<glyph unicode="[" glyph-name="bracketleft" horiz-adv-x="308" d="M293 758L291 740Q288 726 274 726H171L69 -100H172Q187 -100 186 -114L184 -132H25L134 758H293Z" />
<glyph unicode="\" glyph-name="backslash" horiz-adv-x="327" d="M77 728T82 709L301 -42H281Q261 -42 255 -22L36 728H57Q77 728 82 709Z" />
<glyph unicode="]" glyph-name="bracketright" horiz-adv-x="316" d="M17 -132L19 -114Q22 -100 36 -100H139L241 726H138Q123 726 124 740L126 758H285L176 -132H17Z" />
<glyph unicode="^" glyph-name="asciicircum" horiz-adv-x="443" d="M409 400H375Q364 400 360 412L266 630L256 663L239 630L92 412Q82 400 74 400H38L246 708H276L409 400Z" />
<glyph unicode="_" glyph-name="underscore" horiz-adv-x="563" d="M78 -136L83 -102H477L472 -136H78Z" />
<glyph unicode="`" glyph-name="grave" horiz-adv-x="251" d="M164 716T170 712T180 700L244 580H217Q205 580 199 589L106 716H152Q164 716 170 712Z" />
<glyph unicode="a" glyph-name="a" horiz-adv-x="502" d="M449 37T447 20L444 0H355Q346 0 342 5T338 16L355 172Q320 96 267 45T152 -6Q87 -6 57 41T26 167Q26 253 68 331T179 456T329 504Q394 504 437 481L383 39L429 38Q449 37 447 20ZM388 459Q359 469 324
469Q258 469 200 426T108 315T73 175Q73 110 95 72T167 33Q230 33 280 99T363 256L388 459Z" />
<glyph unicode="b" glyph-name="b" horiz-adv-x="522" d="M475 180T442 122T356 29T234 -6Q165 -6 38 22L120 688L68 690Q49 692 50 708L53 728H173L134 411Q219 506 320 506Q405 506 446 455T487 312Q487 294 483 252Q475 180 442 122ZM438 292T438 308Q438 468
302 468Q210 468 129 371L90 52Q192 31 230 31Q317 31 369 91T434 252Q438 292 438 308Z" />
<glyph unicode="c" glyph-name="c" horiz-adv-x="448" d="M367 451Q321 468 284 468Q195 468 143 407T78 249Q75 227 75 205Q75 124 113 78T224 31Q261 31 296 43T355 77Q366 85 371 85Q377 85 380 80L391 64Q360 30 311 12T212 -7Q123 -7 75 50T27 201Q27 225
30 249Q46 366 112 435T286 505Q328 505 359 497T422 474L406 349H382Q362 349 363 373L367 451Z" />
<glyph unicode="d" glyph-name="d" d="M390 0Q377 0 377 13L381 92Q296 -6 193 -6Q108 -6 67 45T26 187Q26 220 30 248Q38 321 71 379T157 472T279 506Q375 506 421 433L453 688L401 690Q382 691 383 708L385 728H505L421 39L467 38Q487 37 485 20L483 0H390ZM393
432T361 450T283 469Q195 469 144 408T79 248Q75 208 75 191Q75 32 211 32Q303 32 384 129L416 391Q393 432 361 450Z" />
<glyph unicode="e" glyph-name="e" horiz-adv-x="438" d="M410 340T359 306T242 257T74 231L72 190Q72 116 105 74T207 31Q241 31 264 38T308 60T363 105Q368 110 375 110Q382 110 386 105L397 92Q314 -6 199 -6Q114 -6 70 47T26 189Q26 271 58 343T147 460T277
504Q334 504 372 476T410 402Q410 340 359 306ZM200 469T148 409T80 264Q164 274 222 286T324 326T368 401Q368 433 342 451T275 469Q200 469 148 409Z" />
<glyph unicode="f" glyph-name="f" horiz-adv-x="474" d="M461 686Q460 676 445 676Q438 676 434 677Q420 679 409 679Q297 679 280 543L272 482H434L429 446H269L214 1Q202 -91 149 -138T4 -186V-162Q4 -146 22 -146Q83 -146 121 -106T167 2L221 445L152 450Q144
451 141 453T139 462L141 482H226L233 545Q242 622 287 669T407 716Q440 716 465 706L461 686Z" />
<glyph unicode="g" glyph-name="g" horiz-adv-x="509" d="M495 481L493 465Q493 461 489 457T479 451L398 445Q407 429 412 408T417 369Q417 328 402 297T349 211Q340 197 333 179T326 146Q326 127 336 109T366 69Q406 24 406 -22Q406 -70 374 -107T291 -164T185
-184Q109 -184 58 -154T6 -66Q6 -17 40 17T128 67T243 84Q259 84 279 82T311 79Q291 106 291 132Q291 153 298 171T320 212Q296 196 275 190T227 183Q165 183 130 221T94 322Q94 373 117 415T183 481T277 506Q327 506 365 481H495ZM278 214T309 235T357 291T374
368Q374 418 348 445T272 472Q234 472 203 452T155 397T138 322Q138 270 164 242T238 214Q278 214 309 235ZM324 50T295 52T247 55Q169 55 110 25T51 -60Q51 -107 90 -128T189 -150Q233 -150 273 -134T338 -89T363 -25Q363 -3 356 13T336 48Q324 50 295 52Z" />
<glyph unicode="h" glyph-name="h" horiz-adv-x="549" d="M505 37T503 20L501 0H381L420 318Q422 330 422 352Q422 407 394 437T308 467Q257 467 214 443T131 373L85 0H38L122 688L70 690Q51 691 52 708L55 727H174L136 412Q222 505 325 505Q398 505 434 466T471
357Q471 339 468 318L433 40L486 38Q505 37 503 20Z" />
<glyph unicode="i" glyph-name="i" horiz-adv-x="221" d="M147 628T136 639T125 668Q125 687 140 701T175 716Q193 716 204 703T213 672Q212 654 197 641T164 628Q147 628 136 639ZM187 37T185 20L183 0H63L120 458L67 460Q48 461 50 478L52 498H172L116 40L168
38Q187 37 185 20Z" />
<glyph unicode="j" glyph-name="j" horiz-adv-x="310" d="M226 628T215 639T204 668Q204 687 219 701T254 716Q271 716 281 704T292 674Q292 656 277 642T243 628Q226 628 215 639ZM185 -63Q178 -120 143 -152T51 -184Q23 -184 4 -174L9 -150Q10 -144 17 -144Q22
-144 28 -146Q38 -148 48 -148Q88 -148 110 -125T138 -63L202 459L150 461Q131 463 132 479L134 498H254L185 -63Z" />
<glyph unicode="k" glyph-name="k" horiz-adv-x="492" d="M475 478Q474 462 453 460L417 458L218 289Q202 274 197 272Q202 271 209 263L388 39L426 38Q445 37 443 20L441 0H377Q363 0 355 11L174 235Q165 245 159 248T138 251H116L85 0H38L122 688L70 690Q51
691 52 708L55 727H174L120 284H143Q158 284 171 295L364 459L339 460Q320 462 321 478L324 498H478L475 478Z" />
<glyph unicode="l" glyph-name="l" horiz-adv-x="207" d="M162 37T160 20L157 0H38L122 688L70 690Q51 691 52 708L55 728H174L90 40L142 38Q162 37 160 20Z" />
<glyph unicode="m" glyph-name="m" horiz-adv-x="820" d="M773 37T771 20L769 0H649L688 318Q690 340 690 351Q690 406 664 436T585 467Q523 467 482 424T435 318L396 0H348L387 318Q389 331 389 355Q389 408 366 438T292 468Q251 468 212 442T144 376L98 0H51L107
459L55 461Q36 463 37 479L40 498H138Q151 498 151 486L147 413Q180 455 221 480T309 505Q364 505 392 473T426 385Q452 443 496 474T599 505Q668 505 703 465T738 357Q738 339 735 318L701 40L753 38Q773 37 771 20Z" />
<glyph unicode="n" glyph-name="n" horiz-adv-x="565" d="M518 37T516 20L514 0H394L433 319Q435 343 435 352Q435 468 322 468Q228 468 144 374L98 0H51L107 459L55 461Q36 463 37 479L40 498H138Q151 498 151 486L147 411Q187 456 235 481T338 506Q411 506 447
466T483 355Q483 332 481 319L447 40L499 38Q518 37 516 20Z" />
<glyph unicode="o" glyph-name="o" horiz-adv-x="522" d="M382 506T434 449T486 296Q486 273 483 249Q468 131 400 63T225 -6Q130 -6 79 50T27 201Q27 225 30 249Q45 368 113 437T288 506Q382 506 434 449ZM319 31T370 90T434 249Q437 275 437 297Q437 377 399
422T283 468Q194 468 143 408T79 249Q76 225 76 202Q76 121 115 76T230 31Q319 31 370 90Z" />
<glyph unicode="p" glyph-name="p" horiz-adv-x="585" d="M537 180T504 122T418 29T297 -6Q248 -6 213 11T154 67L129 -136L181 -138Q200 -139 198 -156L196 -176H4L6 -156Q7 -140 28 -138L81 -136L154 459L102 461Q83 463 84 479L87 498H185Q193 498 195 496T198
486L193 408Q233 454 281 480T382 506Q467 506 508 455T549 312Q549 294 545 252Q537 180 504 122ZM500 292T500 308Q500 467 364 467Q267 467 191 370L159 109Q199 31 292 31Q378 31 431 91T496 252Q500 292 500 308Z" />
<glyph unicode="q" glyph-name="q" horiz-adv-x="513" d="M472 -140T470 -157L468 -176H276L278 -157Q279 -141 300 -139L353 -137L380 88Q295 -6 194 -6Q109 -6 68 45T27 187Q27 205 31 247Q39 319 72 377T158 470T280 505Q349 505 476 477L400 -137L453 -139Q472
-140 470 -157ZM323 468T285 468Q198 468 146 408T80 247Q76 207 76 191Q76 32 212 32Q263 32 305 57T385 128L425 447Q323 468 285 468Z" />
<glyph unicode="r" glyph-name="r" horiz-adv-x="411" d="M386 454Q382 446 375 446Q372 446 366 448Q346 455 337 457T306 459Q199 459 138 323L98 0H51L107 459L55 461Q36 463 37 479L40 498H137Q147 498 149 495T151 483L143 377Q176 441 219 473T321 506Q361
506 396 487L386 454Z" />
<glyph unicode="s" glyph-name="s" horiz-adv-x="416" d="M355 76T301 34T171 -8Q100 -8 28 20L42 141H67Q87 141 85 117L82 43Q120 27 178 27Q233 27 272 56T319 138L320 149Q320 185 289 204T193 243Q132 261 101 286T69 353Q69 365 70 371Q74 410 100 440T166
488T251 505Q308 505 380 479L365 360H341Q322 360 323 384L325 456Q287 469 248 469Q199 469 161 443T116 374Q115 370 115 364Q115 330 145 312T242 274Q303 256 334 229T366 160Q366 151 365 146Q355 76 301 34Z" />
<glyph unicode="t" glyph-name="t" horiz-adv-x="332" d="M113 -8T89 15T65 83Q65 90 67 106L109 446H38Q27 446 27 458L29 476L115 482L148 660Q152 672 162 672H185L162 482H318L314 446H157L116 109Q115 104 115 94Q115 65 130 48T175 31Q193 31 214 40T247
59Q254 64 258 64Q263 64 266 58L275 38Q254 17 221 5T160 -8Q113 -8 89 15Z" />
<glyph unicode="u" glyph-name="u" horiz-adv-x="564" d="M513 37T511 20L509 0H411Q397 0 398 13L402 87Q314 -8 210 -8Q137 -8 101 32T64 142Q64 161 67 180L102 458L49 460Q30 461 32 478L34 497H106L154 498L115 180Q113 168 113 146Q113 90 141 60T226 30Q276
30 321 55T404 124L446 458L393 460Q374 461 376 478L378 497H450L498 498L442 40L494 38Q513 37 511 20Z" />
<glyph unicode="v" glyph-name="v" horiz-adv-x="581" d="M564 479Q563 463 542 461L507 460L257 0H215L78 460L45 461Q26 462 28 479L30 498H204L202 479Q201 463 180 461L128 459L236 93Q243 71 243 50Q245 58 250 70T261 93L459 459L407 461Q388 462 390 479L392
498H566L564 479Z" />
<glyph unicode="w" glyph-name="w" horiz-adv-x="842" d="M825 479Q824 463 803 461L768 460L558 0H523Q515 0 513 11L426 415L421 446L410 415L223 11Q218 0 209 0H176L79 460L46 461Q27 463 28 479L31 498H205L202 479Q201 463 180 461L128 459L200 93Q204 65
204 50Q207 61 222 93L404 489Q409 500 420 500H439Q450 500 452 489L535 93Q541 62 542 50L558 93L720 459L668 461Q649 462 651 479L653 498H827L825 479Z" />
<glyph unicode="x" glyph-name="x" horiz-adv-x="556" d="M489 37T487 20L485 0H337L339 20Q340 36 361 38L389 39L279 232Q277 225 270 216L122 39L152 38Q172 37 170 20L167 0H20L22 20Q23 36 44 38L71 39L251 255L130 460L100 461Q81 463 82 479L85 498H233L230
479Q229 463 208 461L184 460L288 276Q291 284 299 294L435 460L409 461Q390 463 391 479L394 498H542L539 479Q536 462 517 461L486 460L315 257L442 39L470 38Q489 37 487 20Z" />
<glyph unicode="y" glyph-name="y" horiz-adv-x="579" d="M562 479Q561 463 540 461L506 460L161 -160Q157 -167 151 -171T137 -176H103L215 18L75 460L45 461Q26 463 27 479L30 498H204L201 479Q200 463 179 461L127 459L239 98L244 66L259 98L457 459L406 461Q387
463 388 479L391 498H565L562 479Z" />
<glyph unicode="z" glyph-name="z" horiz-adv-x="477" d="M402 0H20L23 19Q24 27 33 37L397 461H145L131 393Q127 369 106 369H82L98 498H458L455 478Q454 468 446 459L83 37H355L369 101Q374 125 393 125H417L402 0Z" />
<glyph unicode="{" glyph-name="braceleft" horiz-adv-x="318" d="M34 328Q80 328 102 357T124 439L123 457Q123 471 120 492Q115 557 115 580Q115 661 158 709T276 758H303L300 738Q299 733 296 730T287 726H270Q216 726 187 686T157 582L158 563Q160 531 160
522Q162 484 165 457Q166 450 166 437Q166 390 142 356T77 313Q140 298 140 234Q140 211 129 169L110 109L96 63Q85 22 85 -8Q85 -51 106 -75T169 -100H185Q190 -100 193 -103T196 -111L194 -132H166Q106 -132 75 -100T44 -10Q44 28 55 65Q63 95 88 169Q98 202
98 231Q98 298 30 298L34 328Z" />
<glyph unicode="|" glyph-name="bar" horiz-adv-x="205" d="M121 -176H84V758H121V-176Z" />
<glyph unicode="}" glyph-name="braceright" horiz-adv-x="326" d="M286 298Q240 298 218 269T196 187L197 169Q197 155 200 134Q205 69 205 46Q205 -35 162 -83T44 -132H17L20 -112Q21 -107 24 -104T33 -100H50Q104 -100 133 -60T163 44L162 63Q160 95 160 104Q158
142 155 169Q154 176 154 189Q154 236 178 270T243 313Q180 328 180 392Q180 415 191 457L210 517L224 563Q235 604 235 634Q235 677 214 701T151 726H135Q130 726 127 729T124 737L126 758H154Q214 758 245 726T276 636Q276 598 265 561Q257 531 232 457Q222 424
222 395Q222 328 290 328L286 298Z" />
<glyph unicode="~" glyph-name="asciitilde" horiz-adv-x="571" d="M423 284T447 309T477 374H516Q511 319 474 282T382 244Q360 244 335 253T275 278Q245 292 225 299T188 307Q151 307 126 282T95 217H56Q62 272 99 309T190 346Q215 346 238 338T295 313Q324
299 344 292T384 284Q423 284 447 309Z" />
<glyph unicode="&#xa0;" glyph-name="uni00A0" horiz-adv-x="218" />
<glyph unicode="&#xa1;" glyph-name="exclamdown" horiz-adv-x="224" d="M113 413T102 425T90 456Q90 475 106 490T142 506Q161 506 172 492T182 460Q181 441 166 427T131 413Q113 413 102 425ZM100 277H132L117 99L84 -176H37L71 99L100 277Z" />
<glyph unicode="&#xa2;" glyph-name="cent" horiz-adv-x="458" d="M336 -6T211 -6L193 -111Q190 -126 176 -126H158L168 -68L179 -3Q106 11 70 67T34 204Q34 227 37 249Q52 357 113 427T267 504V505L285 608Q288 624 302 624H320L299 505Q319 503 359 494T429
474L414 349H390Q370 349 371 373L374 451Q328 468 293 468L292 467L236 139L217 32Q263 32 296 41T362 77Q372 85 378 85Q384 85 387 80L398 64Q336 -6 211 -6ZM261 466Q187 457 142 397T86 249Q83 227 83 205Q83 140 108 96T186 37L261 466Z" />
<glyph unicode="&#xa3;" glyph-name="sterling" horiz-adv-x="600" d="M57 349T73 349H155L173 496Q186 596 248 655T406 715Q470 715 512 686T573 597L553 586Q547 584 543 584Q533 584 528 592Q506 637 478 655T401 674Q325 674 278 625T222 496L204 350H443L441
330Q441 324 436 320T424 316H200L181 164Q175 120 155 90T98 38Q114 42 143 42H536L534 22Q532 12 526 6T509 0H24L28 32Q69 45 97 78T131 153L151 316H51L53 332Q57 349 73 349Z" />
<glyph unicode="&#xa4;" glyph-name="currency" horiz-adv-x="538" d="M100 368T112 393T148 443L80 520L108 545L175 468Q226 507 289 507Q346 507 392 469L479 546L500 521L414 444Q442 402 442 357Q442 323 427 288T388 227L456 150L427 125L360 202Q337 185
307 175T247 164Q187 164 143 202L56 125L35 150L121 226Q95 266 95 315Q95 329 96 336Q100 368 112 393ZM131 330T131 319Q131 268 166 234T251 200Q289 200 325 221T383 277T405 351Q405 404 371 438T284 472Q247 472 214 452T158 400T132 335Q131 330 131 319Z"
/>
<glyph unicode="&#xa5;" glyph-name="yen" horiz-adv-x="569" d="M57 708H97Q110 708 115 695L247 362Q255 337 256 326Q267 351 273 362L486 695Q488 700 494 704T507 708H547L286 308H460L456 279H273L266 220H449L446 191H262L239 0H192L215 191H32L36 220H219L226
279H43L46 308H219L57 708Z" />
<glyph unicode="&#xa6;" glyph-name="brokenbar" horiz-adv-x="210" d="M130 370H92L140 758H178L130 370ZM63 -176H26L73 212H111L63 -176Z" />
<glyph unicode="&#xa7;" glyph-name="section" horiz-adv-x="471" d="M421 639T415 639Q410 639 402 645Q364 667 347 673T297 679Q247 679 208 653T162 582Q159 554 174 535T212 503T293 463Q355 433 387 403T420 328Q420 317 419 311Q415 269 389 238T322 190Q346
170 358 150T370 105Q370 94 369 88Q359 17 306 -24T176 -66Q86 -66 25 -5L39 12Q46 19 53 19Q60 19 69 12Q96 -11 122 -21T184 -31Q241 -31 280 -1T326 80L327 91Q327 120 310 140T268 172T191 209Q121 239 89 267T56 342Q56 392 86 425T168 475Q118 510 118 566Q118
609 144 643T212 697T300 716Q388 716 439 662L427 646Q421 639 415 639ZM99 321T126 298T207 251Q277 219 298 206Q336 223 356 249T377 315Q377 350 353 371T279 418Q203 454 194 459Q148 440 124 416T99 353Q99 321 126 298Z" />
<glyph unicode="&#xa8;" glyph-name="dieresis" horiz-adv-x="377" d="M116 635T106 645T96 672Q96 690 110 703T142 716Q157 716 167 706T177 680Q177 662 164 649T132 635Q116 635 106 645ZM324 635T314 645T304 672Q304 690 318 703T350 716Q365 716 375 706T385
680Q385 662 372 649T340 635Q324 635 314 645Z" />
<glyph unicode="&#xa9;" glyph-name="copyright" horiz-adv-x="807" d="M56 451T115 534T263 666T449 715Q539 715 612 673T726 559T768 398Q768 377 765 354Q753 255 694 172T546 41T360 -7Q270 -7 197 35T83 149T41 309Q41 332 44 354Q56 451 115 534ZM70 333T70
312Q70 232 107 165T212 59T363 20Q454 20 535 64T671 185T737 354Q740 375 740 397Q740 477 702 543T596 649T445 688Q355 688 274 643T139 522T73 354Q70 333 70 312ZM535 216T542 209L556 194Q517 159 475 144T381 129Q292 129 240 181T188 320Q188 330 190
354Q198 420 233 471T324 551T444 580Q535 580 591 524L577 508Q573 503 566 503Q559 503 554 508Q530 527 504 535T442 544Q358 544 302 493T234 354Q232 332 232 321Q232 250 274 208T387 166Q428 166 460 175T523 207Q535 216 542 209Z" />
<glyph unicode="&#xaa;" glyph-name="ordfeminine" horiz-adv-x="343" d="M244 419T244 429L243 463Q189 415 125 415Q90 415 70 432T50 477Q50 486 51 490Q55 539 117 560T256 582L259 607Q260 613 260 624Q260 685 198 685Q177 685 155 677T117 656Q110 650
104 650Q97 650 94 657L89 668Q116 692 143 703T205 715Q250 715 273 692T296 628Q296 615 295 608L272 420L256 419Q244 419 244 429ZM191 441T244 488L253 557Q182 554 135 540T85 492Q82 467 97 454T138 441Q191 441 244 488Z" />
<glyph unicode="&#xab;" glyph-name="guillemotleft" horiz-adv-x="376" d="M188 452L202 444Q208 440 208 433Q208 425 203 420L94 274Q92 271 81 260Q86 255 90 246L164 98Q166 92 166 89Q166 78 156 74L140 67L43 256L44 263L188 452ZM315 452L329 445Q336
441 336 434Q336 429 331 421L221 274Q219 271 208 260Q215 253 218 246L291 99Q293 93 293 90Q293 79 284 74L268 67L170 256L171 263L315 452Z" />
<glyph unicode="&#xac;" glyph-name="logicalnot" horiz-adv-x="540" d="M454 170H413L431 317H58L62 354H476L454 170Z" />
<glyph unicode="&#xad;" glyph-name="uni00AD" horiz-adv-x="363" d="M296 276H64L69 317H301L296 276Z" />
<glyph unicode="&#xae;" glyph-name="registered" horiz-adv-x="807" d="M55 451T114 534T262 666T449 715Q539 715 612 673T726 559T768 398Q768 377 765 354Q753 255 694 172T545 41T360 -7Q270 -7 197 35T83 149T41 309Q41 332 44 354Q55 451 114 534ZM70 333T70
312Q70 232 107 165T212 59T363 20Q454 20 535 64T671 185T737 354Q740 375 740 397Q740 477 702 543T596 649T445 688Q354 688 273 643T139 522T73 354Q70 333 70 312ZM244 133L298 576H421Q563 576 563 479Q563 417 524 381T424 337Q434 333 442 317L562 133H522Q512
133 507 141L394 316Q390 323 383 325T365 328H310L286 133H244ZM449 360T485 387T521 471Q521 511 495 526T417 542H336L314 360H388Q449 360 485 387Z" />
<glyph unicode="&#xaf;" glyph-name="overscore" horiz-adv-x="318" d="M339 611H68L71 643H343L339 611Z" />
<glyph unicode="&#xb0;" glyph-name="degree" horiz-adv-x="398" d="M60 609T85 643T146 697T223 716Q280 716 318 679T357 587Q357 541 333 502T269 441T186 418Q148 418 118 436T70 484T53 548Q53 561 54 567Q60 609 85 643ZM89 509T118 481T191 452Q226 452
256 470T303 519T320 583Q320 626 292 654T219 682Q183 682 153 664T106 616T89 553Q89 509 118 481Z" />
<glyph unicode="&#xb1;" glyph-name="plusminus" horiz-adv-x="574" d="M540 374L536 337H320L296 136H257L281 337H66L71 374H286L311 576H350L325 374H540ZM500 40H30L34 76H504L500 40Z" />
<glyph unicode="&#xb2;" glyph-name="uni00B2" horiz-adv-x="338" d="M276 450H40L41 460Q41 471 50 477L182 596Q222 633 243 662T264 721Q264 751 247 766T201 781Q172 781 152 766T116 719Q113 712 109 711T98 709L79 713Q92 761 126 786T206 812Q249 812 275
790T301 729Q301 719 300 714Q295 678 277 654T208 583L91 478Q108 483 131 483H248L254 507Q257 518 261 523T275 528H286L276 450Z" />
<glyph unicode="&#xb3;" glyph-name="uni00B3" horiz-adv-x="328" d="M238 812T264 791T291 733Q291 694 270 669T214 634Q280 618 280 564Q280 531 262 504T213 462T148 446Q99 446 74 467T40 538L53 543Q57 545 63 545Q68 545 71 542T76 534Q83 505 100 491T150
476Q185 476 211 497T242 549Q246 587 223 603T154 620L157 644Q245 647 255 714Q258 747 242 764T193 781Q133 781 108 719Q104 709 93 709Q88 709 84 710L72 712Q86 761 119 786T198 812Q238 812 264 791Z" />
<glyph unicode="&#xb4;" glyph-name="acute" horiz-adv-x="273" d="M138 594T127 594H92L218 697Q228 705 233 706T250 708H306L147 600Q138 594 127 594Z" />
<glyph unicode="&#xb5;" glyph-name="uni00B5" horiz-adv-x="557" d="M124 168T124 146Q124 90 152 60T237 30Q331 30 414 124L460 498H508L447 0H421Q407 0 408 13L412 87Q371 42 327 20T230 -3Q134 -3 106 72Q106 54 103 21L100 -12L80 -176H56Q45 -176 41 -170T37
-155L117 498H165L126 180Q124 168 124 146Z" />
<glyph unicode="&#xb6;" glyph-name="paragraph" horiz-adv-x="668" d="M528 666L435 -95H392L486 666H322L228 -95H185L240 350Q150 350 95 393T40 511Q40 572 73 617T161 685T284 708H646L641 666H528Z" />
<glyph unicode="&#xb7;" glyph-name="middot" horiz-adv-x="226" d="M88 245T76 259T63 293Q63 315 80 331T121 348Q142 348 154 333T165 297Q164 276 147 261T108 245Q88 245 76 259Z" />
<glyph unicode="&#xb8;" glyph-name="cedilla" horiz-adv-x="285" d="M94 15H126L115 -8L98 -45Q140 -52 160 -66T181 -106Q181 -140 153 -158T81 -177Q40 -177 11 -156L18 -142Q23 -132 33 -139Q43 -146 57 -150T83 -154Q110 -154 126 -143T143 -108Q143 -88
126 -80T87 -69T59 -64L84 -7L94 15Z" />
<glyph unicode="&#xb9;" glyph-name="uni00B9" horiz-adv-x="270" d="M160 744L164 763L85 700Q80 697 77 697Q73 697 68 702L59 717L176 809H205L164 474H237L234 450H45L48 474H127L160 744Z" />
<glyph unicode="&#xba;" glyph-name="ordmasculine" horiz-adv-x="388" d="M280 714T312 680T345 590Q345 582 343 564Q334 493 291 454T182 414Q121 414 88 447T55 537Q55 546 57 564Q67 635 109 674T219 714Q280 714 312 680ZM239 442T268 475T305 564Q307 584
307 591Q307 636 284 661T216 686Q162 686 132 654T95 564Q93 544 93 537Q93 492 116 467T186 442Q239 442 268 475Z" />
<glyph unicode="&#xbb;" glyph-name="guillemotright" horiz-adv-x="376" d="M61 67L47 74Q40 78 40 85Q40 90 45 98L155 245Q158 249 168 259Q161 266 158 273L85 420Q83 426 83 429Q83 441 92 445L108 452L206 263L205 256L61 67ZM188 67L174 75Q168 79 168
86Q168 94 173 99L282 245Q284 248 295 259Q290 264 286 273L212 421Q210 427 210 430Q210 441 220 445L236 452L333 263L332 256L188 67Z" />
<glyph unicode="&#xbc;" glyph-name="onequarter" horiz-adv-x="642" d="M148 645L152 664L73 601Q68 598 65 598Q61 598 56 603L47 618L164 710H193L152 375H225L222 351H33L36 375H115L148 645ZM103 8T96 4T79 0H59L544 690Q555 708 574 708H595L109 16Q103
8 96 4ZM612 106Q610 98 603 98H548L536 0H505L517 98H354Q343 98 343 106L342 122L547 358H580L552 124H615L612 106ZM545 317L377 124H520L541 291L545 317Z" />
<glyph unicode="&#xbd;" glyph-name="onehalf" horiz-adv-x="649" d="M150 647L154 666L75 603Q71 600 67 600Q63 600 58 605L49 620L166 712H195L154 377H227L224 353H35L38 377H117L150 647ZM81 5T75 3Q68 0 59 0H39L524 690Q530 699 537 703Q545 708 553 708H574L88
16Q81 5 75 3ZM583 1H347L348 11Q348 22 357 28L489 147Q529 184 550 213T571 272Q571 302 554 317T508 332Q479 332 459 317T423 270Q420 263 416 262T405 260L386 264Q399 312 433 337T513 363Q556 363 582 341T608 280Q608 270 607 265Q602 229 584 205T515
134L398 29Q415 34 438 34H555L561 58Q564 69 568 74T582 79H593L583 1Z" />
<glyph unicode="&#xbe;" glyph-name="threequarters" horiz-adv-x="676" d="M230 713T256 692T283 634Q283 595 262 570T206 535Q272 519 272 465Q272 432 254 405T205 363T140 347Q91 347 66 368T32 439L45 444Q49 446 55 446Q60 446 63 443T68 435Q75 406 92
392T142 377Q177 377 203 398T234 450Q238 488 215 504T146 521L149 545Q237 548 247 615Q250 648 234 665T185 682Q125 682 100 620Q96 610 85 610Q80 610 76 611L64 613Q78 662 111 687T190 713Q230 713 256 692ZM136 0T117 0H97L581 690Q593 707 611 707H632L146
15Q136 0 117 0ZM645 106Q643 98 636 98H581L569 0H538L550 98H387Q376 98 376 106L375 122L580 358H613L585 124H648L645 106ZM578 317L410 124H553L574 291L578 317Z" />
<glyph unicode="&#xbf;" glyph-name="questiondown" horiz-adv-x="398" d="M258 412T246 426T236 459Q237 477 252 491T288 505Q307 505 318 491T328 459Q326 440 311 426T276 412Q258 412 246 426ZM322 -145T278 -163T187 -182Q120 -182 77 -146T33 -50Q33 -38
34 -32Q40 25 73 61T175 140Q200 155 212 166T227 196L243 277H275L267 190Q263 163 242 145T176 99Q133 73 110 44T80 -28Q79 -33 79 -42Q79 -89 112 -115T195 -142Q271 -142 324 -95Q333 -88 338 -88Q344 -88 349 -96L359 -112Q322 -145 278 -163Z" />
<glyph unicode="&#xc0;" glyph-name="Agrave" horiz-adv-x="754" d="M758 37T756 20L753 0H533L536 20Q538 37 558 38L617 40L615 46L563 232H225L128 46L125 40L186 38Q206 37 204 20L201 0H-19L-16 20Q-14 37 6 38L70 40H72L75 46L427 708H478L667 46L669 40H674L738
38Q758 37 756 20ZM552 270L455 615Q454 622 451 633T446 656Q442 644 427 614L246 270H552ZM345 918T350 916T363 907L464 804H428Q416 804 410 810L277 918H333Q345 918 350 916Z" />
<glyph unicode="&#xc1;" glyph-name="Aacute" horiz-adv-x="754" d="M758 37T756 20L753 0H533L536 20Q538 37 558 38L617 40L615 46L563 232H225L128 46L125 40L186 38Q206 37 204 20L201 0H-19L-16 20Q-14 37 6 38L70 40H72L75 46L427 708H478L667 46L669 40H674L738
38Q758 37 756 20ZM552 270L455 615Q454 622 451 633T446 656Q442 644 427 614L246 270H552ZM515 804T504 804H469L595 907Q605 915 610 916T627 918H683L524 810Q515 804 504 804Z" />
<glyph unicode="&#xc2;" glyph-name="Acircumflex" horiz-adv-x="754" d="M758 37T756 20L753 0H533L536 20Q538 37 558 38L617 40L615 46L563 232H225L128 46L125 40L186 38Q206 37 204 20L201 0H-19L-16 20Q-14 37 6 38L70 40H72L75 46L427 708H478L667 46L669
40H674L738 38Q758 37 756 20ZM552 270L455 615Q454 622 451 633T446 656Q442 644 427 614L246 270H552ZM538 819T533 824L463 886L455 894L446 886L360 824Q353 819 343 819H306L436 918H481L586 819H549Q538 819 533 824Z" />
<glyph unicode="&#xc3;" glyph-name="Atilde" horiz-adv-x="754" d="M758 37T756 20L753 0H533L536 20Q538 37 558 38L617 40L615 46L563 232H225L128 46L125 40L186 38Q206 37 204 20L201 0H-19L-16 20Q-14 37 6 38L70 40H72L75 46L427 708H478L667 46L669 40H674L738
38Q758 37 756 20ZM552 270L455 615Q454 622 451 633T446 656Q442 644 427 614L246 270H552ZM522 876T535 890T551 925H578Q575 891 553 867T498 843Q483 843 471 849T438 870Q421 882 411 887T390 893Q369 893 356 879T341 844H313Q316 880 337 903T393 926Q408
926 422 919T455 898Q471 887 481 882T501 876Q522 876 535 890Z" />
<glyph unicode="&#xc4;" glyph-name="Adieresis" horiz-adv-x="754" d="M758 37T756 20L753 0H533L536 20Q538 37 558 38L617 40L615 46L563 232H225L128 46L125 40L186 38Q206 37 204 20L201 0H-19L-16 20Q-14 37 6 38L70 40H72L75 46L427 708H478L667 46L669
40H674L738 38Q758 37 756 20ZM552 270L455 615Q454 622 451 633T446 656Q442 644 427 614L246 270H552ZM321 845T311 855T301 882Q301 900 315 913T347 926Q362 926 372 916T382 890Q382 872 369 859T337 845Q321 845 311 855ZM529 845T519 855T509 882Q509 900
523 913T555 926Q570 926 580 916T590 890Q590 872 577 859T545 845Q529 845 519 855Z" />
<glyph unicode="&#xc5;" glyph-name="Aring" horiz-adv-x="754" d="M758 37T756 20L753 0H533L536 20Q538 37 558 38L617 40L615 46L563 232H225L128 46L125 40L186 38Q206 37 204 20L201 0H-19L-16 20Q-14 37 6 38L70 40H72L75 46L427 708H478L667 46L669 40H674L738
38Q758 37 756 20ZM552 270L455 615Q454 622 451 633T446 656Q442 644 427 614L246 270H552ZM362 873T390 899T455 925Q488 925 508 906T529 854Q529 817 500 792T436 767Q403 767 383 786T362 838Q362 873 390 899ZM387 815T401 802T439 789Q468 789 486 808T504
854Q504 876 490 889T453 903Q424 903 406 884T387 838Q387 815 401 802Z" />
<glyph unicode="&#xc6;" glyph-name="AE" horiz-adv-x="1012" d="M1002 707L984 561H959Q940 561 941 585L947 665H589L590 379H870L865 338H590L591 43H870L884 122Q889 147 908 147H933L915 0H470L473 20Q475 37 495 38L544 40L543 219H245L125 40L189 38Q209
37 207 20L204 0H-16L-13 20Q-11 37 9 38L71 40L75 46L495 669L455 670Q436 672 437 688L440 707H1002ZM542 257L540 668Q533 650 515 621L270 257H542Z" />
<glyph unicode="&#xc7;" glyph-name="Ccedilla" horiz-adv-x="655" d="M530 715T648 665L628 505H604Q584 505 585 529L593 638Q523 671 423 671Q334 671 262 631T146 518T90 354Q87 327 87 301Q87 222 116 162T201 69T334 36Q403 36 454 54T555 114Q561 118 566
118Q571 118 574 115L591 94Q490 -1 347 -7V-8L330 -45Q372 -52 392 -66T413 -106Q413 -140 385 -158T313 -177Q272 -177 243 -156L250 -142Q255 -132 265 -139Q275 -146 289 -150T315 -154Q342 -154 358 -143T375 -108Q375 -88 358 -80T319 -69T291 -64L316 -8Q228
-6 164 33T67 141T33 295Q33 327 37 354Q51 460 104 541T241 669T428 715Q530 715 648 665Z" />
<glyph unicode="&#xc8;" glyph-name="Egrave" horiz-adv-x="622" d="M606 665L594 561H569Q550 561 551 585L557 665H234L199 379H480L475 338H194L157 43H480L494 122Q499 147 518 147H543L525 0H16L19 20Q20 36 41 38L106 40L183 668L119 670Q100 672 101 688L103
707H612L606 665ZM281 918T286 916T299 907L400 804H364Q352 804 346 810L213 918H269Q281 918 286 916Z" />
<glyph unicode="&#xc9;" glyph-name="Eacute" horiz-adv-x="622" d="M606 665L594 561H569Q550 561 551 585L557 665H234L199 379H480L475 338H194L157 43H480L494 122Q499 147 518 147H543L525 0H16L19 20Q20 36 41 38L106 40L183 668L119 670Q100 672 101 688L103
707H612L606 665ZM451 804T440 804H405L531 907Q541 915 546 916T563 918H619L460 810Q451 804 440 804Z" />
<glyph unicode="&#xca;" glyph-name="Ecircumflex" horiz-adv-x="622" d="M606 665L594 561H569Q550 561 551 585L557 665H234L199 379H480L475 338H194L157 43H480L494 122Q499 147 518 147H543L525 0H16L19 20Q20 36 41 38L106 40L183 668L119 670Q100 672 101
688L103 707H612L606 665ZM474 819T469 824L399 886L391 894L382 886L296 824Q289 819 279 819H242L372 918H417L522 819H485Q474 819 469 824Z" />
<glyph unicode="&#xcb;" glyph-name="Edieresis" horiz-adv-x="622" d="M606 665L594 561H569Q550 561 551 585L557 665H234L199 379H480L475 338H194L157 43H480L494 122Q499 147 518 147H543L525 0H16L19 20Q20 36 41 38L106 40L183 668L119 670Q100 672 101
688L103 707H612L606 665ZM257 845T247 855T237 882Q237 900 251 913T283 926Q298 926 308 916T318 890Q318 872 305 859T273 845Q257 845 247 855ZM465 845T455 855T445 882Q445 900 459 913T491 926Q506 926 516 916T526 890Q526 872 513 859T481 845Q465 845
455 855Z" />
<glyph unicode="&#xcc;" glyph-name="Igrave" horiz-adv-x="332" d="M157 40L221 38Q241 37 239 20L236 0H16L19 20Q20 36 41 38L106 40L183 668L119 670Q100 672 101 688L103 708H323L321 688Q320 672 299 670L234 668L157 40ZM113 918T118 916T131 907L232 804H196Q184
804 178 810L45 918H101Q113 918 118 916Z" />
<glyph unicode="&#xcd;" glyph-name="Iacute" horiz-adv-x="332" d="M157 40L221 38Q241 37 239 20L236 0H16L19 20Q20 36 41 38L106 40L183 668L119 670Q100 672 101 688L103 708H323L321 688Q320 672 299 670L234 668L157 40ZM283 804T272 804H237L363 907Q373
915 378 916T395 918H451L292 810Q283 804 272 804Z" />
<glyph unicode="&#xce;" glyph-name="Icircumflex" horiz-adv-x="332" d="M157 40L221 38Q241 37 239 20L236 0H16L19 20Q20 36 41 38L106 40L183 668L119 670Q100 672 101 688L103 708H323L321 688Q320 672 299 670L234 668L157 40ZM306 819T301 824L231 886L223
894L214 886L128 824Q121 819 111 819H74L204 918H249L354 819H317Q306 819 301 824Z" />
<glyph unicode="&#xcf;" glyph-name="Idieresis" horiz-adv-x="332" d="M157 40L221 38Q241 37 239 20L236 0H16L19 20Q20 36 41 38L106 40L183 668L119 670Q100 672 101 688L103 708H323L321 688Q320 672 299 670L234 668L157 40ZM89 845T79 855T69 882Q69 900
83 913T115 926Q130 926 140 916T150 890Q150 872 137 859T105 845Q89 845 79 855ZM297 845T287 855T277 882Q277 900 291 913T323 926Q338 926 348 916T358 890Q358 872 345 859T313 845Q297 845 287 855Z" />
<glyph unicode="&#xd0;" glyph-name="Eth" horiz-adv-x="763" d="M527 707T594 671T696 568T731 415Q731 382 727 354Q713 246 662 166T530 43T346 0H16L19 20Q20 36 41 38L106 40L143 342H35L39 374H147L183 668L119 670Q100 672 101 688L103 707H433Q527 707
594 671ZM678 392T678 410Q678 529 613 597T428 666H234L198 374H401L397 342H194L157 41H351Q440 41 509 79T620 188T674 354Q678 392 678 410Z" />
<glyph unicode="&#xd1;" glyph-name="Ntilde" horiz-adv-x="827" d="M815 689Q814 673 793 671L729 669L647 0H622Q611 0 605 10L220 624Q220 613 218 595L150 40L216 38Q236 37 234 20L232 0H16L19 20Q20 36 41 38L106 40L183 668L119 670Q100 672 101 688L103
708H213Q225 708 231 698L614 85Q614 96 616 114L684 669L617 671Q598 672 600 689L602 708H818L815 689ZM528 876T541 890T557 925H584Q581 891 559 867T504 843Q489 843 477 849T444 870Q427 882 417 887T396 893Q375 893 362 879T347 844H319Q322 880 343 903T399
926Q414 926 428 919T461 898Q477 887 487 882T507 876Q528 876 541 890Z" />
<glyph unicode="&#xd2;" glyph-name="Ograve" horiz-adv-x="747" d="M699 248T647 166T513 38T330 -8Q238 -8 171 31T69 139T33 296Q33 327 37 354Q51 460 103 542T238 670T419 716Q510 716 577 678T680 571T716 413Q716 381 712 354Q699 248 647 166ZM663 392T663
410Q663 531 598 601T413 672Q326 672 257 632T145 519T90 354Q86 314 86 298Q86 177 151 107T335 37Q426 37 495 78T606 190T659 354Q663 392 663 410ZM318 918T323 916T336 907L437 804H401Q389 804 383 810L250 918H306Q318 918 323 916Z" />
<glyph unicode="&#xd3;" glyph-name="Oacute" horiz-adv-x="747" d="M699 248T647 166T513 38T330 -8Q238 -8 171 31T69 139T33 296Q33 327 37 354Q51 460 103 542T238 670T419 716Q510 716 577 678T680 571T716 413Q716 381 712 354Q699 248 647 166ZM663 392T663
410Q663 531 598 601T413 672Q326 672 257 632T145 519T90 354Q86 314 86 298Q86 177 151 107T335 37Q426 37 495 78T606 190T659 354Q663 392 663 410ZM488 804T477 804H442L568 907Q578 915 583 916T600 918H656L497 810Q488 804 477 804Z" />
<glyph unicode="&#xd4;" glyph-name="Ocircumflex" horiz-adv-x="747" d="M699 248T647 166T513 38T330 -8Q238 -8 171 31T69 139T33 296Q33 327 37 354Q51 460 103 542T238 670T419 716Q510 716 577 678T680 571T716 413Q716 381 712 354Q699 248 647 166ZM663
392T663 410Q663 531 598 601T413 672Q326 672 257 632T145 519T90 354Q86 314 86 298Q86 177 151 107T335 37Q426 37 495 78T606 190T659 354Q663 392 663 410ZM511 819T506 824L436 886L428 894L419 886L333 824Q326 819 316 819H279L409 918H454L559 819H522Q511
819 506 824Z" />
<glyph unicode="&#xd5;" glyph-name="Otilde" horiz-adv-x="747" d="M699 248T647 166T513 38T330 -8Q238 -8 171 31T69 139T33 296Q33 327 37 354Q51 460 103 542T238 670T419 716Q510 716 577 678T680 571T716 413Q716 381 712 354Q699 248 647 166ZM663 392T663
410Q663 531 598 601T413 672Q326 672 257 632T145 519T90 354Q86 314 86 298Q86 177 151 107T335 37Q426 37 495 78T606 190T659 354Q663 392 663 410ZM495 876T508 890T524 925H551Q548 891 526 867T471 843Q456 843 444 849T411 870Q394 882 384 887T363 893Q342
893 329 879T314 844H286Q289 880 310 903T366 926Q381 926 395 919T428 898Q444 887 454 882T474 876Q495 876 508 890Z" />
<glyph unicode="&#xd6;" glyph-name="Odieresis" horiz-adv-x="747" d="M699 248T647 166T513 38T330 -8Q238 -8 171 31T69 139T33 296Q33 327 37 354Q51 460 103 542T238 670T419 716Q510 716 577 678T680 571T716 413Q716 381 712 354Q699 248 647 166ZM663
392T663 410Q663 531 598 601T413 672Q326 672 257 632T145 519T90 354Q86 314 86 298Q86 177 151 107T335 37Q426 37 495 78T606 190T659 354Q663 392 663 410ZM294 845T284 855T274 882Q274 900 288 913T320 926Q335 926 345 916T355 890Q355 872 342 859T310
845Q294 845 284 855ZM502 845T492 855T482 882Q482 900 496 913T528 926Q543 926 553 916T563 890Q563 872 550 859T518 845Q502 845 492 855Z" />
<glyph unicode="&#xd7;" glyph-name="multiply" horiz-adv-x="486" d="M434 149L405 123L241 309L31 122L8 148L218 335L57 519L86 546L248 362L453 545L476 518L270 335L434 149Z" />
<glyph unicode="&#xd8;" glyph-name="Oslash" horiz-adv-x="763" d="M649 629Q686 589 705 534T725 414Q725 382 721 354Q708 248 656 166T522 38T339 -8Q225 -8 148 52L72 -36Q59 -52 40 -52H18L126 72Q85 113 64 170T42 295Q42 327 46 354Q60 460 112 542T247
670T428 716Q547 716 626 651L690 725Q699 734 704 737T717 740H745L649 629ZM95 314T95 297Q95 179 158 110L594 613Q529 672 422 672Q335 672 266 632T154 519T99 354Q95 314 95 297ZM672 392T672 410Q672 522 615 591L180 89Q243 37 344 37Q435 37 504 78T615
190T668 354Q672 392 672 410Z" />
<glyph unicode="&#xd9;" glyph-name="Ugrave" horiz-adv-x="754" d="M232 -8T179 22T97 105T69 225Q69 248 72 270L120 669L56 671Q37 672 39 689L41 708H274L271 689Q270 673 249 671L172 669L123 270Q121 246 121 233Q121 145 171 91T311 36Q376 36 429 66T515
149T557 270L605 669L529 671Q510 673 511 689L514 708H746L743 689Q742 673 721 671L656 669L608 270Q598 189 557 126T450 28T305 -8Q232 -8 179 22ZM313 918T318 916T331 907L432 804H396Q384 804 378 810L245 918H301Q313 918 318 916Z" />
<glyph unicode="&#xda;" glyph-name="Uacute" horiz-adv-x="754" d="M232 -8T179 22T97 105T69 225Q69 248 72 270L120 669L56 671Q37 672 39 689L41 708H274L271 689Q270 673 249 671L172 669L123 270Q121 246 121 233Q121 145 171 91T311 36Q376 36 429 66T515
149T557 270L605 669L529 671Q510 673 511 689L514 708H746L743 689Q742 673 721 671L656 669L608 270Q598 189 557 126T450 28T305 -8Q232 -8 179 22ZM483 804T472 804H437L563 907Q573 915 578 916T595 918H651L492 810Q483 804 472 804Z" />
<glyph unicode="&#xdb;" glyph-name="Ucircumflex" horiz-adv-x="754" d="M232 -8T179 22T97 105T69 225Q69 248 72 270L120 669L56 671Q37 672 39 689L41 708H274L271 689Q270 673 249 671L172 669L123 270Q121 246 121 233Q121 145 171 91T311 36Q376 36 429
66T515 149T557 270L605 669L529 671Q510 673 511 689L514 708H746L743 689Q742 673 721 671L656 669L608 270Q598 189 557 126T450 28T305 -8Q232 -8 179 22ZM506 819T501 824L431 886L423 894L414 886L328 824Q321 819 311 819H274L404 918H449L554 819H517Q506
819 501 824Z" />
<glyph unicode="&#xdc;" glyph-name="Udieresis" horiz-adv-x="754" d="M232 -8T179 22T97 105T69 225Q69 248 72 270L120 669L56 671Q37 672 39 689L41 708H274L271 689Q270 673 249 671L172 669L123 270Q121 246 121 233Q121 145 171 91T311 36Q376 36 429 66T515
149T557 270L605 669L529 671Q510 673 511 689L514 708H746L743 689Q742 673 721 671L656 669L608 270Q598 189 557 126T450 28T305 -8Q232 -8 179 22ZM289 845T279 855T269 882Q269 900 283 913T315 926Q330 926 340 916T350 890Q350 872 337 859T305 845Q289
845 279 855ZM497 845T487 855T477 882Q477 900 491 913T523 926Q538 926 548 916T558 890Q558 872 545 859T513 845Q497 845 487 855Z" />
<glyph unicode="&#xdd;" glyph-name="Yacute" horiz-adv-x="680" d="M668 689Q667 673 646 671L609 669L326 292L295 40L359 38Q379 37 377 20L374 0H154L157 20Q158 36 179 38L243 40L274 292L84 669L47 671Q28 672 30 689L32 708H217L214 689Q211 672 192 671L140
669L289 370Q293 362 305 326Q323 359 331 370L553 669L501 671Q482 673 483 689L486 708H670L668 689ZM409 804T398 804H363L489 907Q499 915 504 916T521 918H577L418 810Q409 804 398 804Z" />
<glyph unicode="&#xde;" glyph-name="Thorn" horiz-adv-x="538" d="M30 0L117 708H168L150 566H282Q390 566 449 522T509 390Q509 380 507 356Q499 291 461 243T362 169T230 143H99L81 0H30ZM324 184T385 231T456 356Q458 376 458 385Q458 456 411 490T277 524H145L104
184H235Q324 184 385 231Z" />
<glyph unicode="&#xdf;" glyph-name="germandbls" horiz-adv-x="523" d="M406 716T452 681T499 591Q499 548 472 511T403 449Q362 425 339 405T312 360Q310 335 323 320T365 292Q413 269 434 256T467 222T480 169Q480 116 455 76T387 14T289 -8Q245 -8 210 6T143
53L157 70Q164 77 171 77Q178 77 187 70Q216 46 239 37T297 27Q351 27 389 58T434 140Q435 145 435 155Q435 188 413 210T349 249Q305 265 283 287T261 339Q261 365 273 384T301 417T357 458Q402 488 425 514T453 576Q457 623 423 651T333 680Q250 680 199 631T138
500L77 0H30L91 500Q98 564 131 613T218 689T338 716Q406 716 452 681Z" />
<glyph unicode="&#xe0;" glyph-name="agrave" horiz-adv-x="497" d="M248 716T256 712Q261 709 266 700L330 581H303Q296 581 293 582Q290 583 286 589L193 716H239Q248 716 256 712ZM447 37T445 20L442 0H353Q343 0 340 5Q336 9 336 16L353 172Q334 133 311 99Q290
69 263 43Q241 22 209 7Q182 -6 150 -6Q119 -6 95 6Q70 19 55 41Q40 61 32 95Q24 129 24 167Q24 212 34 252Q44 293 66 332Q86 370 114 401Q144 434 176 455Q212 479 248 491Q286 504 327 504Q355 504 383 499Q415 491 435 481L381 39L404 38H427Q447 37 445 20ZM341
201T361 256L386 459Q357 469 322 469Q289 469 257 457Q226 445 198 426Q168 405 147 379Q123 350 107 318Q88 279 80 249Q71 213 71 175Q71 108 94 70Q116 33 165 33Q195 33 221 49Q252 68 274 94Q294 116 321 165Q341 201 361 256Z" />
<glyph unicode="&#xe1;" glyph-name="aacute" horiz-adv-x="497" d="M279 583T276 582Q273 581 266 581H237L330 700Q336 708 343 712Q351 716 362 716H409L285 589Q279 583 276 582ZM447 37T445 20L442 0H353Q343 0 340 5Q336 9 336 16L353 172Q334 133 311 99Q290
69 263 43Q241 22 209 7Q182 -6 150 -6Q119 -6 95 6Q70 19 55 41Q40 61 32 95Q24 129 24 167Q24 212 34 252Q44 293 66 332Q86 370 114 401Q144 434 176 455Q212 479 248 491Q286 504 327 504Q355 504 383 499Q415 491 435 481L381 39L404 38H427Q447 37 445 20ZM341
201T361 256L386 459Q357 469 322 469Q289 469 257 457Q226 445 198 426Q168 405 147 379Q123 350 107 318Q88 279 80 249Q71 213 71 175Q71 108 94 70Q116 33 165 33Q195 33 221 49Q252 68 274 94Q294 116 321 165Q341 201 361 256Z" />
<glyph unicode="&#xe2;" glyph-name="acircumflex" horiz-adv-x="497" d="M369 585T365 591L297 672Q294 673 292 678L289 674L287 672L198 591L191 586Q189 585 184 585H150L274 708H317L410 585H378Q369 585 365 591ZM447 37T445 20L442 0H353Q343 0 340 5Q336
9 336 16L353 172Q334 133 311 99Q290 69 263 43Q241 22 209 7Q182 -6 150 -6Q119 -6 95 6Q70 19 55 41Q40 61 32 95Q24 129 24 167Q24 212 34 252Q44 293 66 332Q86 370 114 401Q144 434 176 455Q212 479 248 491Q286 504 327 504Q355 504 383 499Q415 491 435
481L381 39L404 38H427Q447 37 445 20ZM341 201T361 256L386 459Q357 469 322 469Q289 469 257 457Q226 445 198 426Q168 405 147 379Q123 350 107 318Q88 279 80 249Q71 213 71 175Q71 108 94 70Q116 33 165 33Q195 33 221 49Q252 68 274 94Q294 116 321 165Q341
201 361 256Z" />
<glyph unicode="&#xe3;" glyph-name="atilde" horiz-adv-x="499" d="M368 640T380 654Q393 669 396 691H425Q424 676 416 657Q410 643 399 630Q388 618 374 612Q359 606 343 606Q325 606 313 614L287 632L263 650Q252 658 238 658Q215 658 204 644Q193 630 188
607H157Q159 626 166 641Q172 654 184 668Q195 680 209 686Q227 693 241 693Q257 693 271 684L297 666L321 648Q332 640 346 640Q368 640 380 654ZM447 37T445 20L443 0H354Q344 0 341 5Q337 9 337 16L353 172Q332 128 312 99Q293 71 263 43Q241 22 209 7Q182 -6
150 -6Q119 -6 95 6Q72 18 56 41Q39 63 32 95Q24 129 24 167Q24 208 35 252Q46 297 66 332Q86 370 114 401Q144 434 176 455Q212 479 248 491Q286 504 328 504Q356 504 384 499Q415 492 435 481L382 39L404 38H428Q447 37 445 20ZM339 196T361 256L386 459Q357
469 322 469Q289 469 257 457Q226 445 198 426Q168 405 147 379Q123 350 107 318Q90 283 81 249Q72 213 72 175Q72 107 94 70Q116 33 165 33Q196 33 222 49Q251 66 274 94Q297 119 322 165Q339 196 361 256Z" />
<glyph unicode="&#xe4;" glyph-name="adieresis" horiz-adv-x="498" d="M242 632T239 627Q236 622 228 614Q222 608 214 605Q207 602 198 602Q191 602 183 605Q175 608 171 614Q167 619 164 627Q162 635 162 638Q162 649 168 658Q172 666 178 671Q184 677 192
680Q202 684 208 684Q213 684 223 680Q230 677 235 671Q241 663 243 658Q246 652 244 642Q242 632 239 627ZM415 635T410 627Q406 620 400 614Q394 608 386 605Q378 602 369 602Q362 602 354 605Q347 608 342 614Q338 619 335 627Q333 635 333 638Q333 649 339
658Q343 666 349 671Q355 677 363 680Q373 684 379 684Q385 684 395 680Q402 677 407 671Q411 666 414 658Q417 650 416 642Q415 635 410 627ZM447 37T445 20L443 0H354Q344 0 341 5Q337 9 337 16L353 172Q332 128 312 99Q293 71 263 43Q241 22 209 7Q182 -6 150
-6Q119 -6 95 6Q72 18 56 41Q39 63 32 95Q24 129 24 167Q24 208 35 252Q46 297 66 332Q86 370 114 401Q144 434 176 455Q212 479 248 491Q286 504 328 504Q356 504 384 499Q415 492 435 481L382 39L404 38H428Q447 37 445 20ZM339 196T361 256L386 459Q357 469
322 469Q289 469 257 457Q226 445 198 426Q168 405 147 379Q123 350 107 318Q90 283 81 249Q72 213 72 175Q72 107 94 70Q116 33 165 33Q196 33 222 49Q251 66 274 94Q297 119 322 165Q339 196 361 256Z" />
<glyph unicode="&#xe5;" glyph-name="aring" horiz-adv-x="496" d="M201 665T212 684Q223 702 233 710Q248 721 263 727Q279 733 297 733Q314 733 329 727Q344 721 355 710Q365 700 370 684Q373 674 373 660Q373 637 362 618Q352 602 341 593Q326 582 311 576Q295
570 277 570Q259 570 244 576Q231 581 219 593Q208 604 204 618Q201 630 201 642Q201 665 212 684ZM229 625T241 610Q254 594 280 594Q306 594 323 610Q345 630 345 659Q345 677 333 692Q320 708 294 708Q268 708 251 692Q229 672 229 643Q229 625 241 610ZM446
37T444 20L442 0H353Q343 0 340 5Q336 9 336 16L352 172Q331 128 311 99Q292 71 262 43Q240 22 208 7Q181 -6 149 -6Q118 -6 94 6Q71 18 55 41Q39 64 31 95Q23 129 23 167Q23 208 34 252Q45 297 65 332Q85 370 113 401Q143 434 175 455Q211 479 247 491Q285 504
327 504Q355 504 383 499Q414 492 434 481L381 39L403 38H427Q446 37 444 20ZM338 196T360 256L385 459Q356 469 321 469Q288 469 256 457Q225 445 197 426Q167 405 146 379Q122 351 106 318Q89 283 80 249Q71 213 71 175Q71 107 93 70Q115 33 164 33Q195 33 221
49Q250 66 273 94Q296 119 321 165Q338 196 360 256Z" />
<glyph unicode="&#xe6;" glyph-name="ae" horiz-adv-x="717" d="M606 512T642 482T678 402Q678 326 591 292T369 258Q368 246 368 222Q368 137 400 88T497 39Q531 39 553 46T592 64T653 112Q659 117 665 117Q671 117 676 112L687 100Q638 48 593 25T489 1Q428
1 390 37T338 137Q317 76 263 38T146 -1Q86 -1 53 28T20 114Q20 208 111 247T330 288Q337 339 337 366Q337 419 317 446T247 474Q181 474 119 421Q109 413 102 413Q94 413 88 421L80 434Q162 513 252 513Q307 513 336 485T372 399Q401 453 447 482T551 512Q606
512 642 482ZM475 477T429 422T372 287Q493 292 564 317T636 400Q636 437 612 457T546 477Q475 477 429 422ZM209 252T137 224T65 120Q65 78 88 56T154 33Q220 33 266 80T320 199L326 257Q209 252 137 224Z" />
<glyph unicode="&#xe7;" glyph-name="ccedilla" horiz-adv-x="447" d="M377 48T359 36Q339 22 316 13Q299 6 267 -1Q253 -4 223 -6L207 -46Q252 -54 272 -68Q289 -81 289 -105Q289 -123 279 -140Q271 -153 258 -160Q241 -170 227 -173Q207 -178 189 -178Q170 -178
150 -172Q131 -166 119 -157L126 -143Q129 -137 135 -137Q138 -137 141 -139L152 -145L168 -151Q177 -154 192 -154Q217 -154 233 -143Q248 -133 251 -113V-107Q251 -97 247 -92Q243 -85 230 -79Q217 -73 203 -70L168 -65L193 -6Q160 -3 128 11Q90 28 66 61Q42
93 32 141Q26 167 26 197Q26 213 30 249Q38 311 57 353Q78 400 111 434Q142 466 188 487Q228 505 286 505Q305 505 337 498Q358 493 397 482L422 474L406 349H382Q362 349 363 373Q363 374 363 376T364 385L365 413Q365 425 367 451Q321 468 284 468Q241 468 206
453Q171 438 145 409Q117 380 101 340Q84 298 78 249Q75 224 75 202Q75 175 79 156Q87 113 105 88Q123 62 155 46Q185 31 224 31Q260 31 285 40Q316 51 327 58Q350 72 355 77Q364 85 371 85Q377 85 380 80L391 64Q377 48 359 36Z" />
<glyph unicode="&#xe8;" glyph-name="egrave" horiz-adv-x="434" d="M232 716T240 712Q245 709 250 700L314 580H287Q283 580 277 582Q274 583 270 589L177 716H223Q232 716 240 712ZM408 378T403 363Q397 345 383 328Q371 313 345 297Q320 282 284 270Q240 256
194 248Q151 239 72 231Q71 224 71 210L70 190Q70 116 104 73Q137 31 205 31Q232 31 253 37Q275 43 291 52Q313 64 321 71L343 90L361 105Q367 110 374 110Q379 110 384 105L395 92Q371 66 348 48Q323 28 301 17Q277 5 252 -1Q231 -6 197 -6Q155 -6 123 7Q92 20
69 46Q49 68 36 108Q24 144 24 189Q24 224 32 264Q40 305 54 337Q71 375 90 403Q111 433 140 456Q167 477 202 491Q235 504 275 504Q313 504 337 494Q364 483 378 469Q393 455 401 436Q408 419 408 402Q408 378 403 363ZM235 469T201 452Q170 436 144 407Q118 378
102 342Q86 305 78 264Q146 272 187 280Q230 288 265 300Q300 312 317 322Q339 336 348 347Q359 360 362 373Q366 391 366 401Q366 411 361 424Q357 435 346 446Q335 457 317 463Q303 469 273 469Q235 469 201 452Z" />
<glyph unicode="&#xe9;" glyph-name="eacute" horiz-adv-x="434" d="M263 583T260 582Q254 580 249 580H221L314 700Q320 708 327 712Q335 716 345 716H392L269 589Q263 583 260 582ZM408 378T403 363Q397 345 383 328Q371 313 345 297Q320 282 284 270Q240 256
194 248Q151 239 72 231Q71 224 71 210L70 190Q70 116 104 73Q137 31 205 31Q232 31 253 37Q275 43 291 52Q313 64 321 71L343 90L361 105Q367 110 374 110Q379 110 384 105L395 92Q371 66 348 48Q323 28 301 17Q277 5 252 -1Q231 -6 197 -6Q155 -6 123 7Q92 20
69 46Q49 68 36 108Q24 144 24 189Q24 224 32 264Q40 305 54 337Q71 375 90 403Q111 433 140 456Q167 477 202 491Q235 504 275 504Q313 504 337 494Q364 483 378 469Q393 455 401 436Q408 419 408 402Q408 378 403 363ZM235 469T201 452Q170 436 144 407Q118 378
102 342Q86 305 78 264Q146 272 187 280Q230 288 265 300Q300 312 317 322Q339 336 348 347Q359 360 362 373Q366 391 366 401Q366 411 361 424Q357 435 346 446Q335 457 317 463Q303 469 273 469Q235 469 201 452Z" />
<glyph unicode="&#xea;" glyph-name="ecircumflex" horiz-adv-x="434" d="M353 584T348 590L280 672Q277 673 275 678L273 674L270 672L181 590Q179 588 175 586Q171 584 167 584H134L258 708H300L394 584H361Q353 584 348 590ZM408 378T403 363Q397 345 383 328Q371
313 345 297Q320 282 284 270Q240 256 194 248Q151 239 72 231Q71 224 71 210L70 190Q70 116 104 73Q137 31 205 31Q232 31 253 37Q275 43 291 52Q313 64 321 71L343 90L361 105Q367 110 374 110Q379 110 384 105L395 92Q371 66 348 48Q323 28 301 17Q277 5 252
-1Q231 -6 197 -6Q155 -6 123 7Q92 20 69 46Q49 68 36 108Q24 144 24 189Q24 224 32 264Q40 305 54 337Q71 375 90 403Q111 433 140 456Q167 477 202 491Q235 504 275 504Q313 504 337 494Q364 483 378 469Q393 455 401 436Q408 419 408 402Q408 378 403 363ZM235
469T201 452Q170 436 144 407Q118 378 102 342Q86 305 78 264Q146 272 187 280Q230 288 265 300Q300 312 317 322Q339 336 348 347Q359 360 362 373Q366 391 366 401Q366 411 361 424Q357 435 346 446Q335 457 317 463Q303 469 273 469Q235 469 201 452Z" />
<glyph unicode="&#xeb;" glyph-name="edieresis" horiz-adv-x="437" d="M227 635T222 627Q217 619 212 614Q207 609 197 605Q189 602 181 602Q173 602 166 605Q158 608 154 614Q150 619 147 627Q144 634 146 642Q148 653 151 658Q156 666 161 671Q166 676 176
680Q186 684 191 684Q197 684 207 680Q215 677 219 671Q223 666 226 658Q229 650 228 642Q227 635 222 627ZM397 632T394 627Q391 622 383 614Q377 608 369 605Q362 602 353 602Q344 602 337 605Q330 608 325 614Q321 619 318 627Q315 634 317 642Q319 653 322
658Q327 666 332 671Q337 676 347 680Q357 684 363 684Q368 684 378 680Q386 677 390 671Q396 663 398 658Q401 652 399 642Q397 632 394 627ZM409 381T403 363Q396 343 384 328Q372 313 346 297Q323 282 284 270Q239 255 195 248Q152 239 73 231Q71 217 71 210V190Q71
115 104 73Q137 31 206 31Q233 31 254 37Q276 43 292 52Q311 63 321 71L344 90L361 105Q367 110 374 110Q380 110 385 105L396 92Q375 69 348 48Q323 28 301 17Q277 5 252 -1Q231 -6 198 -6Q156 -6 124 7Q92 20 69 46Q49 68 36 108Q24 144 24 189Q24 224 32 264Q40
305 54 337Q69 372 91 403Q113 435 140 456Q167 477 202 491Q235 504 276 504Q314 504 338 494Q365 483 379 469Q392 457 401 436Q409 417 409 402Q409 381 403 363ZM235 469T201 452Q170 436 144 407Q120 380 103 342Q85 301 78 264Q149 272 188 280Q231 288 266
300Q299 311 317 322Q339 336 348 347Q360 361 363 373Q367 391 367 401Q367 411 362 424Q358 434 346 446Q335 457 317 463Q303 469 274 469Q235 469 201 452Z" />
<glyph unicode="&#xec;" glyph-name="igrave" horiz-adv-x="216" d="M118 716T126 712Q131 709 136 700L200 580H173Q169 580 163 582Q159 583 155 589L62 716H108Q118 716 126 712ZM176 37T174 20L172 0H52L62 80L108 458L84 459H69L61 460H56Q37 462 38 478L41
498H160L104 40L128 39L143 38H156Q176 37 174 20Z" />
<glyph unicode="&#xed;" glyph-name="iacute" horiz-adv-x="279" d="M144 583T141 582Q135 580 131 580H102L195 700Q201 708 208 712Q216 716 227 716H274L150 589Q144 583 141 582ZM173 37T171 20L169 0H49L59 80L105 458L81 459H66L58 460H53Q34 462 35 478L38
498H157L101 40L125 39L140 38H153Q173 37 171 20Z" />
<glyph unicode="&#xee;" glyph-name="icircumflex" horiz-adv-x="291" d="M246 584T242 590L174 672Q171 673 169 678L166 674L163 672L75 590Q74 589 68 586Q64 584 60 584H27L151 708H194L287 584H254Q246 584 242 590ZM180 37T178 20L175 0H56L66 80L112 458L88
459H73L65 460H60Q41 462 42 478L45 498H164L108 40L132 39L147 38H160Q180 37 178 20Z" />
<glyph unicode="&#xef;" glyph-name="idieresis" horiz-adv-x="310" d="M131 635T126 627Q121 619 116 614Q110 608 102 605Q94 602 85 602Q78 602 71 605Q63 608 59 614Q53 622 51 627Q48 634 50 642Q52 653 55 658Q58 663 66 671Q72 677 80 680Q90 684 95 684Q101
684 111 680Q119 677 123 671Q127 666 130 658Q133 650 132 642Q131 635 126 627ZM301 632T298 627Q295 622 287 614Q281 608 273 605Q265 602 257 602Q249 602 242 605Q235 608 230 614Q224 622 222 627Q219 634 221 642Q223 653 226 658Q229 663 237 671Q243
677 251 680Q258 683 267 683Q274 683 282 680Q290 677 294 671Q300 663 302 658Q305 652 303 642Q301 632 298 627ZM188 36T186 20L184 0H64L74 80L120 458L96 459H81L73 460H68Q49 462 50 478L53 498H173L116 40L141 39L156 38H168Q188 36 186 20Z" />
<glyph unicode="&#xf0;" glyph-name="eth" horiz-adv-x="520" d="M243 541T243 543Q243 547 250 554L319 609Q264 641 192 656Q176 661 180 674L190 696Q286 680 354 635L439 703L446 688Q447 686 447 683Q447 674 440 669L376 619Q485 527 485 367Q485 329 481
300Q463 159 396 77T214 -6Q125 -6 74 49T22 194Q22 204 24 228Q32 294 65 347T152 430T270 460Q331 460 377 429T444 344Q449 514 342 594L251 521L245 535Q243 541 243 543ZM310 32T363 100T434 282Q423 346 380 384T273 423Q189 423 135 368T72 228Q70 206 70
196Q70 122 110 77T220 32Q310 32 363 100Z" />
<glyph unicode="&#xf1;" glyph-name="ntilde" horiz-adv-x="562" d="M401 640T413 654Q426 669 429 691H459Q458 676 450 657Q445 645 432 630Q421 618 407 612Q390 605 376 605Q359 605 346 614L320 632L296 650Q285 658 271 658Q248 658 237 644Q226 630 221
607H190Q192 626 199 641Q205 654 217 668Q227 680 243 686Q258 692 274 692Q293 692 305 684L330 666L354 648Q365 640 379 640Q401 640 413 654ZM517 36T515 20L513 0H393L432 318Q434 340 434 349Q434 397 413 428Q386 467 320 467Q270 467 226 442Q183 418
143 373L108 94L97 0H49L54 40L106 458L81 459H66L59 460H53Q34 461 36 478L38 497H136Q150 497 150 485L145 410Q180 449 233 479Q279 505 337 505Q379 505 408 492Q437 479 455 455Q472 433 478 396Q482 370 482 354Q482 338 479 318L445 40L469 39L485 38H497Q517
36 515 20Z" />
<glyph unicode="&#xf2;" glyph-name="ograve" horiz-adv-x="519" d="M265 716T273 712Q278 709 283 700L347 581H320Q313 581 310 582Q306 583 302 589L209 716H255Q265 716 273 712ZM337 506T380 487Q417 470 444 436Q470 402 479 355Q484 325 484 297Q484 275
481 249Q473 189 453 144Q431 95 399 63Q366 30 321 12Q276 -6 223 -6Q171 -6 130 12Q91 29 65 63Q39 96 30 144Q25 174 25 201Q25 224 28 249Q36 308 56 355Q77 403 110 436Q143 469 188 487Q235 506 286 506Q337 506 380 487ZM273 31T307 46Q342 61 368 90Q393
118 410 159Q426 198 432 249Q435 275 435 296Q435 320 432 339Q426 377 407 408Q388 438 357 453Q326 468 281 468Q237 468 202 453Q168 438 141 408Q116 379 99 339Q83 300 77 249Q74 225 74 202Q74 180 77 159Q83 121 102 90Q120 61 152 46Q184 31 228 31Q273
31 307 46Z" />
<glyph unicode="&#xf3;" glyph-name="oacute" horiz-adv-x="519" d="M295 583T292 582Q289 581 282 581H253L346 700Q352 708 359 712Q367 716 378 716H425L301 589Q295 583 292 582ZM337 506T380 487Q417 470 444 436Q470 402 479 355Q484 325 484 297Q484 275
481 249Q473 189 453 144Q431 95 399 63Q366 30 321 12Q276 -6 223 -6Q171 -6 130 12Q91 29 65 63Q39 96 30 144Q25 174 25 201Q25 224 28 249Q36 308 56 355Q77 403 110 436Q143 469 188 487Q235 506 286 506Q337 506 380 487ZM273 31T307 46Q342 61 368 90Q393
118 410 159Q426 198 432 249Q435 275 435 296Q435 320 432 339Q426 377 407 408Q388 438 357 453Q326 468 281 468Q237 468 202 453Q168 438 141 408Q116 379 99 339Q83 300 77 249Q74 225 74 202Q74 180 77 159Q83 121 102 90Q120 61 152 46Q184 31 228 31Q273
31 307 46Z" />
<glyph unicode="&#xf4;" glyph-name="ocircumflex" horiz-adv-x="519" d="M386 584T381 590L313 672Q310 673 308 678L305 674L303 672L214 590Q212 588 208 586Q206 585 200 585H166L290 708H333L426 585L394 584Q386 584 381 590ZM337 506T380 487Q417 470 444
436Q470 402 479 355Q484 325 484 297Q484 275 481 249Q473 189 453 144Q431 95 399 63Q366 30 321 12Q276 -6 223 -6Q171 -6 130 12Q91 29 65 63Q39 96 30 144Q25 174 25 201Q25 224 28 249Q36 308 56 355Q77 403 110 436Q143 469 188 487Q235 506 286 506Q337
506 380 487ZM273 31T307 46Q342 61 368 90Q393 118 410 159Q426 198 432 249Q435 275 435 296Q435 320 432 339Q426 377 407 408Q388 438 357 453Q326 468 281 468Q237 468 202 453Q168 438 141 408Q116 379 99 339Q83 300 77 249Q74 225 74 202Q74 180 77 159Q83
121 102 90Q120 61 152 46Q184 31 228 31Q273 31 307 46Z" />
<glyph unicode="&#xf5;" glyph-name="otilde" horiz-adv-x="520" d="M383 640T395 654Q408 669 411 691H441Q440 676 432 657Q426 643 415 630Q404 618 390 612Q375 606 358 606Q340 606 328 614L302 632L278 650Q267 658 253 658Q231 658 220 644Q207 628 203
607H173Q175 626 182 641Q188 654 200 668Q211 680 225 686Q243 693 256 693Q273 693 287 684L313 666L336 648Q347 640 361 640Q383 640 395 654ZM337 506T380 487Q419 470 445 436Q470 404 479 355Q485 325 485 293Q485 272 482 249Q475 192 453 144Q431 95 399
63Q365 29 322 12Q277 -6 224 -6Q171 -6 130 12Q91 29 65 63Q39 96 30 144Q25 174 25 201Q25 224 28 249Q36 308 56 355Q76 401 111 436Q144 469 189 487Q237 506 287 506Q337 506 380 487ZM274 31T308 46Q343 61 369 90Q395 118 411 159Q427 198 433 249Q436 275
436 296Q436 320 433 339Q427 377 408 408Q389 438 358 453Q327 468 282 468Q237 468 202 453Q168 438 141 408Q116 379 99 339Q83 300 77 249Q74 225 74 202Q74 180 77 159Q83 121 102 90Q120 61 152 46Q184 31 228 31Q274 31 308 46Z" />
<glyph unicode="&#xf6;" glyph-name="odieresis" horiz-adv-x="520" d="M257 632T254 627Q251 622 243 614Q237 608 229 605Q222 602 213 602Q206 602 198 605Q190 608 186 614Q182 619 179 627Q177 635 177 638Q177 649 183 658Q187 666 193 671Q199 677 207
680Q217 684 223 684Q228 684 238 680Q245 677 250 671Q256 663 258 658Q261 652 259 642Q257 632 254 627ZM430 635T425 627Q421 620 415 614Q409 608 401 605Q393 602 384 602Q377 602 369 605Q362 608 357 614Q353 619 350 627Q348 635 348 638Q348 649 354
658Q358 666 364 671Q370 677 378 680Q388 684 394 684Q400 684 410 680Q417 677 422 671Q426 666 429 658Q432 650 431 642Q430 635 425 627ZM337 506T380 487Q419 470 445 436Q470 404 479 355Q485 325 485 293Q485 272 482 249Q475 192 453 144Q431 95 399 63Q365
29 322 12Q277 -6 224 -6Q171 -6 130 12Q91 29 65 63Q39 96 30 144Q25 174 25 201Q25 224 28 249Q36 308 56 355Q76 401 111 436Q144 469 189 487Q237 506 287 506Q337 506 380 487ZM274 31T308 46Q343 61 369 90Q395 118 411 159Q427 198 433 249Q436 275 436
296Q436 320 433 339Q427 377 408 408Q389 438 358 453Q327 468 282 468Q237 468 202 453Q168 438 141 408Q116 379 99 339Q83 300 77 249Q74 225 74 202Q74 180 77 159Q83 121 102 90Q120 61 152 46Q184 31 228 31Q274 31 308 46Z" />
<glyph unicode="&#xf7;" glyph-name="divide" horiz-adv-x="526" d="M262 466T251 478T239 509Q239 529 255 544T292 560Q311 560 322 546T332 513Q331 494 316 480T280 466Q262 466 251 478ZM497 317H28L32 354H501L497 317ZM219 110T208 122T196 153Q196 173
212 188T249 204Q268 204 279 190T289 157Q288 138 273 124T237 110Q219 110 208 122Z" />
<glyph unicode="&#xf8;" glyph-name="oslash" horiz-adv-x="522" d="M453 425Q486 374 486 296Q486 273 483 249Q468 131 400 63T225 -6Q153 -6 107 26L65 -22Q52 -38 32 -38H12L84 44Q27 98 27 201Q27 225 30 249Q45 368 113 437T288 506Q381 506 435 449L493
516Q501 525 505 528T519 531H544L453 425ZM76 225T76 202Q76 121 113 78L405 415Q365 468 283 468Q194 468 143 408T79 249Q76 225 76 202ZM437 275T437 298Q437 351 420 388L134 58Q174 31 230 31Q319 31 370 90T434 249Q437 275 437 298Z" />
<glyph unicode="&#xf9;" glyph-name="ugrave" horiz-adv-x="560" d="M283 716T291 712Q296 709 301 700L365 581H338Q331 581 328 582Q324 583 320 589L227 716H273Q283 716 291 712ZM511 37T509 20L507 0H409Q395 0 396 13L400 87Q359 43 312 18Q263 -8 208 -8Q166
-8 137 5Q109 18 90 43Q72 67 66 102Q62 128 62 144Q62 161 65 180L100 458L75 459H60L53 460H47Q28 461 30 478L32 497H104L152 498L113 180Q111 156 111 147Q111 101 131 70Q159 30 224 30Q271 30 318 55Q363 81 402 124L444 458L419 459H404L397 460H391Q372
461 374 478L376 497H448L496 498L440 40L464 39L479 38H492Q511 37 509 20Z" />
<glyph unicode="&#xfa;" glyph-name="uacute" horiz-adv-x="560" d="M313 583T310 582Q307 581 300 581H271L364 700Q370 708 377 712Q385 716 396 716H443L319 589Q313 583 310 582ZM511 37T509 20L507 0H409Q395 0 396 13L400 87Q359 43 312 18Q263 -8 208 -8Q166
-8 137 5Q109 18 90 43Q72 67 66 102Q62 128 62 144Q62 161 65 180L100 458L75 459H60L53 460H47Q28 461 30 478L32 497H104L152 498L113 180Q111 156 111 147Q111 101 131 70Q159 30 224 30Q271 30 318 55Q363 81 402 124L444 458L419 459H404L397 460H391Q372
461 374 478L376 497H448L496 498L440 40L464 39L479 38H492Q511 37 509 20Z" />
<glyph unicode="&#xfb;" glyph-name="ucircumflex" horiz-adv-x="560" d="M404 585T399 591L331 672Q328 673 326 678L323 674L320 672L232 591L225 586Q223 585 218 585H184L308 708H351L444 585H412Q404 585 399 591ZM511 37T509 20L507 0H409Q395 0 396 13L400
87Q359 43 312 18Q263 -8 208 -8Q166 -8 137 5Q109 18 90 43Q72 67 66 102Q62 128 62 144Q62 161 65 180L100 458L75 459H60L53 460H47Q28 461 30 478L32 497H104L152 498L113 180Q111 156 111 147Q111 101 131 70Q159 30 224 30Q271 30 318 55Q363 81 402 124L444
458L419 459H404L397 460H391Q372 461 374 478L376 497H448L496 498L440 40L464 39L479 38H492Q511 37 509 20Z" />
<glyph unicode="&#xfc;" glyph-name="udieresis" horiz-adv-x="560" d="M276 635T271 627Q267 620 261 614Q256 609 246 605Q238 602 230 602Q223 602 215 605Q207 608 203 614Q199 619 196 627Q193 634 195 642Q197 653 200 658Q205 666 210 671Q215 676 225
680Q235 684 240 684Q246 684 256 680Q263 677 268 671Q272 666 275 658Q278 650 277 642Q276 635 271 627ZM446 632T443 627Q440 622 432 614Q426 608 418 605Q411 602 402 602Q393 602 386 605Q378 608 374 614Q370 619 367 627Q364 634 366 642Q368 653 371
658Q376 666 381 671Q386 676 396 680Q406 684 412 684Q417 684 427 680Q435 677 439 671Q445 663 447 658Q450 652 448 642Q446 632 443 627ZM511 37T509 20L507 0H409Q395 0 396 13L400 87Q359 43 312 18Q263 -8 208 -8Q166 -8 137 5Q109 18 90 43Q72 67 66 102Q62
128 62 144Q62 161 65 180L100 458L75 459H60L53 460H47Q28 461 30 478L32 497H104L152 498L113 180Q111 156 111 147Q111 101 131 70Q159 30 224 30Q271 30 318 55Q363 81 402 124L444 458L419 459H404L397 460H391Q372 461 374 478L376 497H448L496 498L440 40L464
39L479 38H492Q511 37 509 20Z" />
<glyph unicode="&#xfd;" glyph-name="yacute" horiz-adv-x="577" d="M316 583T313 582Q310 581 303 581H274L367 700Q373 708 380 712Q388 716 399 716H446L322 589Q316 583 313 582ZM561 478Q560 462 539 460H534Q533 460 531 460T523 459H504L159 -160Q154 -168
150 -171Q143 -176 136 -176H102L213 18L74 459L43 460Q24 461 26 478L28 497H202L200 478Q199 462 178 460H172L156 459L126 458L237 98L241 83L243 68Q247 78 250 83Q252 88 258 98L456 458L432 459H417L410 460H404Q385 461 387 478L389 497H563L561 478Z" />
<glyph unicode="&#xfe;" glyph-name="thorn" horiz-adv-x="521" d="M172 728L133 410Q219 506 319 506Q404 506 445 455T486 312Q486 294 482 252Q474 180 441 121T355 28T234 -6Q185 -6 150 12T91 70L61 -176H14L124 728H172ZM251 468T207 441T128 370L96 109Q117
68 149 50T229 31Q317 31 368 91T433 252Q437 292 437 308Q437 468 301 468Q251 468 207 441Z" />
<glyph unicode="&#xff;" glyph-name="ydieresis" horiz-adv-x="578" d="M278 632T275 627Q272 622 264 614Q258 608 250 605Q243 602 234 602Q227 602 219 605Q212 608 207 614Q201 622 199 627Q196 634 198 642Q200 653 203 658Q206 663 214 671Q220 677 228
680Q238 684 244 684Q249 684 259 680Q266 677 271 671Q277 663 279 658Q282 652 280 642Q278 632 275 627ZM451 635T446 627Q442 620 436 614Q431 609 421 605Q413 602 405 602Q398 602 390 605Q383 608 378 614Q372 622 370 627Q367 634 369 642Q371 653 374
658Q377 663 385 671Q391 677 399 680Q409 684 415 684Q421 684 431 680Q438 677 443 671Q447 666 450 658Q453 650 452 642Q451 635 446 627ZM561 478Q560 462 539 460H534Q533 460 531 460T523 459H505L160 -160Q156 -166 150 -171Q143 -176 136 -176H102L214
18L74 459L44 460Q25 461 26 478L29 497H203L200 478Q199 462 178 460H172L156 459L126 458L238 98L244 68Q248 78 251 83Q255 93 258 98L456 458L432 459H417L410 460H405Q386 462 387 478L390 497H564L561 478Z" />
<glyph unicode="&#x2013;" glyph-name="endash" horiz-adv-x="521" d="M456 272H63L67 307H461L456 272Z" />
<glyph unicode="&#x2014;" glyph-name="emdash" horiz-adv-x="776" d="M712 272H63L67 307H716L712 272Z" />
<glyph unicode="&#x2018;" glyph-name="quoteleft" horiz-adv-x="206" d="M64 555T64 586Q64 598 65 604Q69 642 93 679T150 745L161 738Q165 735 165 730Q165 727 162 722Q104 657 104 609Q104 588 116 559Q117 557 117 553Q117 544 108 541L76 529Q64 555 64 586Z" />
<glyph unicode="&#x2019;" glyph-name="quoteright" horiz-adv-x="203" d="M154 713T154 681Q154 669 153 663Q149 625 125 588T68 522L57 529Q53 532 53 537Q53 541 56 545Q114 610 114 658Q114 679 102 708Q101 710 101 714Q101 723 110 726L142 738Q154 713 154 681Z" />
<glyph unicode="&#x201a;" glyph-name="quotesinglbase" horiz-adv-x="221" d="M150 63T150 31Q150 19 149 13Q145 -25 121 -62T64 -128L53 -121Q49 -118 49 -113Q49 -110 52 -105Q110 -40 110 8Q110 29 98 58Q97 60 97 64Q97 73 106 76L138 88Q150 63 150 31Z" />
<glyph unicode="&#x201c;" glyph-name="quotedblleft" horiz-adv-x="340" d="M64 555T64 586Q64 598 65 604Q69 642 93 679T150 745L161 738Q165 735 165 730Q165 727 162 722Q104 657 104 609Q104 588 116 559Q117 557 117 553Q117 544 108 541L76 529Q64 555
64 586ZM198 555T198 586Q198 598 199 604Q203 642 227 679T284 745L295 738Q299 735 299 730Q299 727 296 722Q238 657 238 609Q238 588 250 559Q251 557 251 553Q251 544 242 541L210 529Q198 555 198 586Z" />
<glyph unicode="&#x201d;" glyph-name="quotedblright" horiz-adv-x="338" d="M155 714T155 682Q155 670 154 664Q150 626 126 589T69 523L58 530Q54 533 54 538Q54 542 57 546Q115 611 115 659Q115 680 103 709Q102 711 102 715Q102 724 111 727L143 739Q155
714 155 682ZM289 714T289 682Q289 670 288 664Q284 626 260 589T203 523L192 530Q188 533 188 538Q188 542 191 546Q249 611 249 659Q249 680 237 709Q236 711 236 715Q236 724 245 727L277 739Q289 714 289 682Z" />
<glyph unicode="&#x201e;" glyph-name="quotedblbase" horiz-adv-x="355" d="M151 63T151 31Q151 19 150 13Q146 -25 122 -62T65 -128L54 -121Q50 -118 50 -113Q50 -110 53 -105Q111 -40 111 8Q111 29 99 58Q98 60 98 64Q98 73 107 76L139 88Q151 63 151 31ZM285
63T285 31Q285 19 284 13Q280 -25 256 -62T199 -128L188 -121Q184 -118 184 -113Q184 -110 187 -105Q245 -40 245 8Q245 29 233 58Q232 60 232 64Q232 73 241 76L273 88Q285 63 285 31Z" />
<glyph unicode="&#x2022;" glyph-name="bullet" horiz-adv-x="406" d="M128 151T92 191T56 288Q56 328 79 364T141 423T222 446Q277 446 313 408T349 316Q349 306 348 300Q345 261 321 227T261 172T185 151Q128 151 92 191Z" />
<glyph unicode="&#x2039;" glyph-name="guilsinglleft" horiz-adv-x="248" d="M188 452L202 444Q208 440 208 433Q208 425 203 420L94 274Q92 271 81 260Q86 255 90 246L164 98Q166 92 166 89Q166 78 156 74L140 67L43 256L44 263L188 452Z" />
<glyph unicode="&#x203a;" glyph-name="guilsinglright" horiz-adv-x="249" d="M59 67L45 75Q39 79 39 86Q39 94 44 99L153 245Q156 249 166 259Q161 264 157 273L83 421Q81 427 81 430Q81 441 91 445L107 452L204 263L203 256L59 67Z" />
</font>
</defs>
</svg>
