<svg width="73" height="71" viewBox="0 0 73 71" fill="none" xmlns="http://www.w3.org/2000/svg">
<g clip-path="url(#clip0)">
<path d="M32.5196 70.9767C16.4008 70.9767 3.28729 58.2225 3.28729 42.5453C3.71736 10.5141 49.4869 3.27491 60.3246 33.479C60.8267 34.9305 60.0234 36.5035 58.5304 36.9917C57.0374 37.4799 55.4201 36.6985 54.9182 35.2466C51.6953 25.9245 42.6939 19.6613 32.5195 19.6613C1.35012 20.8113 1.35568 64.2824 32.5198 65.429C33.8886 65.429 35.2605 65.3139 36.597 65.087C40.3398 64.5844 41.2774 69.7883 37.578 70.5519C35.9186 70.8339 34.2167 70.9767 32.5196 70.9767ZM29.435 8.27926C29.5739 4.61147 34.9917 4.60412 35.1389 8.26248C35.279 11.9387 40.7038 11.936 40.8427 8.26248C40.4078 -2.74729 24.1546 -2.73411 23.7311 8.2794C23.872 11.9555 29.2952 11.9534 29.435 8.27926ZM69.1784 49.4559L56.4428 42.1063C51.3376 39.0388 44.4059 42.7931 44.5026 48.6487C44.5026 48.6486 44.5026 63.3479 44.5026 63.3479C44.4079 69.2013 51.3339 72.9597 56.443 69.8901C56.443 69.8902 69.1784 62.5406 69.1784 62.5406C74.2724 59.7065 74.2755 52.291 69.1784 49.4559ZM66.2679 57.7695L53.5323 65.1191C52.0503 65.9663 50.2165 64.9725 50.2065 63.3479V48.6486C50.2065 47.5746 50.9642 47.039 51.2902 46.8584C51.8103 46.5332 52.833 46.4211 53.5324 46.8774L66.268 54.227C67.6831 55.0601 67.6706 56.9453 66.2679 57.7695ZM36.945 42.6792C36.945 44.9772 35.0298 46.8399 32.6671 46.8399C28.7431 46.8453 26.9179 42.0715 29.8166 39.5776L29.8126 27.7064C29.812 26.1742 31.0891 24.9316 32.6645 24.9318C34.2392 24.9318 35.516 26.173 35.5164 27.7047L35.5204 39.5802C36.3946 40.3419 36.945 41.4478 36.945 42.6792ZM53.0382 15.1139C50.4662 12.4222 54.2986 8.68743 57.0714 11.1912L64.2012 18.1257C65.315 19.209 65.315 20.9652 64.2012 22.0484C63.0875 23.1317 61.2817 23.1317 60.168 22.0484L53.0382 15.1139ZM12.0108 11.3299C13.1246 12.4132 13.1246 14.1694 12.0108 15.2526L4.88095 22.1871C2.12926 24.7058 -1.72712 20.9361 0.847746 18.2644L7.97759 11.3299C9.09127 10.2467 10.8971 10.2467 12.0108 11.3299Z" fill="white"/>
</g>
<defs>
<clipPath id="clip0">
<rect width="73" height="71" fill="white"/>
</clipPath>
</defs>
</svg>
