<svg width="84" height="57" viewBox="0 0 84 57" fill="none" xmlns="http://www.w3.org/2000/svg">
<path d="M84 20.8174C84 37.9262 55.836 57 37.5029 57C19.1697 57 0 48.0871 0 30.9783C0 13.8694 19.1697 0 37.5029 0C55.836 0 84 3.70857 84 20.8174Z" fill="#A1D7D0"/>
<path d="M66 26.6087C66 38.6149 46.2181 52 33.3413 52C20.4644 52 7 45.7453 7 33.7391C7 21.7329 20.4644 12 33.3413 12C46.2181 12 66 14.6025 66 26.6087Z" fill="white"/>
<path d="M48 32.4C48 39.3036 36.9356 47 29.7333 47C22.531 47 15 43.4036 15 36.5C15 29.5964 22.531 24 29.7333 24C36.9356 24 48 25.4964 48 32.4Z" fill="#7D9995"/>
</svg>
