<svg width="65" height="65" viewBox="0 0 65 65" fill="none" xmlns="http://www.w3.org/2000/svg">
<g clip-path="url(#clip0)">
<path d="M64.4418 47.1072C64.4417 47.1071 64.4414 47.1069 64.4413 47.1067C62.5895 45.2551 60.4949 43.7563 58.1915 42.6258C62.5205 37.8705 64.2129 32.157 64.2129 31.2443C64.2129 30.3479 63.5928 29.5962 62.7585 29.3937C59.6638 28.5703 56.4238 28.3255 53.2427 28.6603C53.3601 28.0668 53.4603 27.4684 53.5399 26.8644C54.0231 23.1944 53.7824 19.5207 52.8247 15.9453C52.5412 14.8873 51.4664 14.3376 50.4915 14.5987C46.9042 15.5595 43.5359 17.2368 40.6038 19.5003C38.6553 14.1147 35.645 10.6614 33.847 8.86325C33.4899 8.50613 33.0044 8.30542 32.4994 8.30542C31.9943 8.30542 31.51 8.50613 31.1529 8.86325C29.3606 10.6556 26.3465 14.1092 24.3961 19.5001C21.464 17.2367 18.0956 15.5594 14.5083 14.5986C13.4922 14.3267 12.4485 14.9292 12.1762 15.945C11.5102 18.4296 10.6349 22.9811 11.757 28.6602C8.5781 28.3257 5.34041 28.5698 2.24758 29.392C1.40969 29.592 0.786729 30.3463 0.786729 31.2453C0.786729 31.9376 2.27475 37.6454 6.80824 42.6257C4.50455 43.7562 2.40995 45.255 0.558213 47.1067C0.200713 47.4639 0 47.9492 0 48.4542C0 48.9592 0.200713 49.4436 0.557832 49.8007C5.0036 54.2465 10.9145 56.6949 17.2018 56.6949C22.8738 56.6949 28.2396 54.7018 32.4996 51.0476C36.7597 54.7018 42.1253 56.6949 47.7975 56.6949C54.0663 56.6949 59.9612 54.2607 64.4024 49.8395C64.7703 49.4923 65.0001 49 65.0001 48.4541C65 47.9281 64.7866 47.4518 64.4418 47.1072ZM52.1386 32.6559C54.6909 32.2104 57.3171 32.2111 59.8694 32.655C58.0704 37.5982 54.6263 41.7128 50.0164 44.3739C46.9014 46.1726 43.4789 47.1782 39.9874 47.3593C45.5769 44.0559 48.5801 39.7242 50.0222 37.2265C50.8626 35.7708 51.5722 34.2379 52.1386 32.6559ZM5.12992 32.6549C7.68219 32.2111 10.3083 32.2103 12.8604 32.6558C13.4267 34.2378 14.1365 35.771 14.9768 37.2261C16.4185 39.7231 19.4219 44.0559 25.0115 47.359C21.5203 47.1778 18.0972 46.1721 14.9824 44.3736C10.3736 41.7133 6.92974 37.5987 5.12992 32.6549ZM17.2016 52.8864C12.6049 52.8864 8.24853 51.3253 4.73738 48.4533C6.27491 47.1947 7.97596 46.1889 9.8197 45.4485C10.8488 46.2704 11.941 47.0158 13.0781 47.6722C15.3056 48.9585 19.51 50.9646 25.2699 51.1729C22.7651 52.2958 20.029 52.8864 17.2016 52.8864ZM18.2752 35.3219C16.922 32.9784 13.9529 26.8944 15.4181 18.8701C18.2974 19.9022 20.9695 21.4767 23.268 23.4997C22.8738 25.4173 22.6745 27.3742 22.6745 29.332C22.6745 32.3693 23.1452 37.9274 26.5802 43.8576C21.9676 41.0197 19.4812 37.4108 18.2752 35.3219ZM32.4995 45.6526C26.9773 39.1922 26.4831 32.1537 26.4831 29.332C26.4831 26.5075 26.9782 19.4704 32.4995 13.0113C38.0208 19.4706 38.5159 26.5071 38.5159 29.332C38.5159 32.1562 38.0207 39.1936 32.4995 45.6526ZM42.3245 29.3319C42.3245 27.374 42.1252 25.4173 41.731 23.4996C44.0299 21.4763 46.7021 19.9018 49.5817 18.8697C51.0459 26.8943 48.0771 32.9781 46.724 35.3218C45.514 37.4174 43.0268 41.0225 38.4188 43.8574C41.8524 37.9298 42.3245 32.3709 42.3245 29.3319ZM47.7973 52.8864C44.9701 52.8864 42.2339 52.296 39.7291 51.1728C45.4983 50.9641 49.7061 48.9511 51.9205 47.6723C53.0579 47.0158 54.1501 46.2704 55.1792 45.4484C57.0229 46.1889 58.7239 47.1947 60.2616 48.4532C56.7506 51.3251 52.3941 52.8864 47.7973 52.8864Z" fill="#D7D8DC"/>
</g>
<defs>
<clipPath id="clip0">
<rect width="65" height="65" fill="white"/>
</clipPath>
</defs>
</svg>
