<svg width="38" height="35" viewBox="0 0 38 35" fill="none" xmlns="http://www.w3.org/2000/svg">
<path d="M37.7826 11.4112L33.9922 7.91991V0.683594C33.9922 0.306045 33.6598 0 33.25 0H22.3159C21.9061 0 21.5738 0.306045 21.5738 0.683594C21.5738 1.06114 21.9061 1.36719 22.3159 1.36719H32.5078V15.3027L18.9666 27.775L5.49219 15.3643V1.36719H15.6363C16.0461 1.36719 16.3784 1.06114 16.3784 0.683594C16.3784 0.306045 16.0461 0 15.6363 0H4.75C4.34016 0 4.00781 0.306045 4.00781 0.683594V7.91991L0.217387 11.4112C0.0782266 11.5393 0 11.7132 0 11.8945V31.582C0 33.4667 1.66473 35 3.71094 35H34.2891C36.3353 35 38 33.4667 38 31.582V11.8945C38 11.7132 37.9218 11.5393 37.7826 11.4112ZM36.5156 31.582C36.5156 31.8982 36.4374 32.1979 36.298 32.4656L26.1356 23.1055L36.5156 13.5449V31.582ZM33.9922 9.85346L36.2082 11.8945L33.9922 13.9355V9.85346ZM1.70198 32.4656C1.5626 32.1979 1.48438 31.8983 1.48438 31.582V13.6064L11.831 23.1362L1.70198 32.4656ZM4.00781 13.9971L1.75839 11.9253L4.00781 9.85346V13.9971ZM3.71094 33.6328C3.36768 33.6328 3.0423 33.5608 2.75166 33.4324L12.8807 24.103L18.4418 29.2251C18.581 29.3532 18.7698 29.4253 18.9666 29.4253C19.1634 29.4253 19.3522 29.3532 19.4914 29.2251L25.0859 24.0723L35.2484 33.4324C34.9577 33.5608 34.6324 33.6329 34.2891 33.6329H3.71094V33.6328Z" fill="#4A5E5B"/>
<path d="M18.9762 1.36719C19.1714 1.36719 19.3629 1.29404 19.5009 1.16689C19.6389 1.03975 19.7184 0.863379 19.7184 0.683594C19.7184 0.503809 19.639 0.327441 19.5009 0.200293C19.3629 0.0731445 19.1714 0 18.9762 0C18.7803 0 18.5895 0.0731445 18.4515 0.200293C18.3135 0.327441 18.234 0.503809 18.234 0.683594C18.234 0.863379 18.3134 1.03975 18.4515 1.16689C18.5895 1.29404 18.7803 1.36719 18.9762 1.36719Z" fill="#4A5E5B"/>
<path d="M11.9793 8.28384C10.9723 9.96896 10.7075 11.9117 11.2336 13.754C11.6893 15.3499 12.6731 16.7267 14.079 17.7355C15.4325 18.7068 17.1185 19.2657 18.8263 19.3092C18.8334 19.3094 18.8403 19.3095 18.8472 19.3095C19.2476 19.3095 19.5776 19.0157 19.5887 18.6447C19.6 18.2674 19.277 17.9529 18.8673 17.9425C15.9593 17.8685 13.4107 16.0031 12.6691 13.4063C11.776 10.2787 13.6991 7.05972 17.0473 6.07801C18.7459 5.57995 20.549 5.72665 22.1245 6.49091C23.6969 7.25359 24.8465 8.53533 25.3628 10.1008C25.6916 11.2448 25.585 12.3052 25.007 13.644C24.8421 14.0256 24.3304 14.9134 23.1399 14.9134C22.9516 14.9134 22.7611 14.833 22.6034 14.6871C22.3919 14.4913 22.2715 14.2148 22.273 13.9253V8.27358C22.273 7.89603 21.9407 7.58999 21.5308 7.58999C21.1209 7.58999 20.7887 7.89603 20.7887 8.27358V8.49131C20.2093 8.04649 19.4897 7.79254 18.6834 7.79254C16.809 7.79254 14.8701 9.28927 14.8701 11.794C14.8701 12.8979 15.2499 13.9318 15.9397 14.7052C16.6388 15.4894 17.6105 15.9391 18.6054 15.9391C19.5379 15.9391 20.3779 15.5598 21.0175 14.9275C21.1462 15.1961 21.326 15.4429 21.5512 15.6513C21.9895 16.0571 22.5537 16.2805 23.1399 16.2805C24.855 16.2805 25.9414 15.1795 26.3862 14.1491C27.0839 12.5333 27.2097 11.1728 26.7938 9.73764C26.7918 9.73053 26.7895 9.72342 26.7872 9.71637C26.157 7.79274 24.7467 6.2176 22.8162 5.28122C20.8861 4.34497 18.6774 4.16525 16.597 4.77522C14.6259 5.3532 12.986 6.59919 11.9793 8.28384ZM18.6054 14.5719C17.3643 14.5719 16.3545 13.3257 16.3545 11.7939C16.3545 10.145 17.5387 9.15966 18.6835 9.15966C19.917 9.15966 20.7784 10.2344 20.7784 11.7732C20.7783 13.3164 19.8036 14.5719 18.6054 14.5719Z" fill="#4A5E5B"/>
</svg>
