<svg width="35" height="35" viewBox="0 0 35 35" fill="none" xmlns="http://www.w3.org/2000/svg">
<path d="M25.302 0H9.69798C8.39798 0 7.33398 1.063 7.33398 2.364V32.635C7.33398 33.936 8.39798 35 9.69798 35H25.302C26.602 35 27.666 33.938 27.666 32.636V2.364C27.666 1.063 26.602 0 25.302 0ZM15.004 1.704H19.996C20.154 1.704 20.282 1.832 20.282 1.991C20.282 2.149 20.154 2.277 19.996 2.277H15.004C14.846 2.277 14.718 2.149 14.718 1.991C14.718 1.832 14.846 1.704 15.004 1.704ZM17.5 33.818C16.847 33.818 16.318 33.289 16.318 32.635C16.318 31.981 16.847 31.453 17.5 31.453C18.153 31.453 18.682 31.981 18.682 32.635C18.682 33.289 18.153 33.818 17.5 33.818ZM26.021 30.625H8.97898V3.749H26.021V30.625Z" fill="#4A5E5B"/>
</svg>
