<svg id="Layer_1" enable-background="new 0 0 511.933 511.933" height="512" viewBox="0 0 511.933 511.933" width="512" xmlns="http://www.w3.org/2000/svg"><path d="m228.053 511.771c-113.038 0-205-91.962-205-205 3.016-230.955 323.988-283.152 399.99-65.371 3.521 10.466-2.112 21.808-12.582 25.328s-21.812-2.114-25.332-12.583c-22.601-67.215-85.726-112.375-157.077-112.375-218.584 8.292-218.545 321.733.002 330 9.599 0 19.22-.83 28.593-2.466 26.247-3.624 32.822 33.898 6.879 39.404-11.637 2.033-23.572 3.063-35.473 3.063zm-21.632-452.069c.974-26.446 38.968-26.499 40-.121.983 26.507 39.026 26.487 40 0-3.05-79.384-117.03-79.289-120 .122.988 26.506 39.02 26.491 40-.001zm278.712 296.897s-89.312-52.993-89.312-52.993c-35.802-22.118-84.412 4.952-83.734 47.173 0-.001 0 105.986 0 105.986-.664 42.205 47.906 69.304 83.735 47.171 0 .001 89.311-52.992 89.311-52.992 35.723-20.435 35.745-73.903 0-94.345zm-20.411 59.944-89.312 52.993c-10.393 6.108-23.253-1.057-23.323-12.771v-105.987c0-7.744 5.314-11.606 7.6-12.908 3.647-2.345 10.819-3.153 15.724.137 0 0 89.312 52.993 89.312 52.993 9.924 6.007 9.836 19.6-.001 25.543zm-205.635-108.806c0 16.569-13.431 30-30 30-27.518.039-40.318-34.382-19.99-52.364l-.028-85.595c-.004-11.048 8.952-20.007 20-20.006 11.043 0 19.997 8.95 20 19.994l.028 85.626c6.13 5.492 9.99 13.466 9.99 22.345zm112.858-198.755c-18.037-19.408 8.839-46.337 28.284-28.284 0 0 50 50 50 50 7.811 7.811 7.811 20.474 0 28.284-7.81 7.811-20.474 7.811-28.284 0 0 0-50-50-50-50zm-287.716-27.284c7.811 7.811 7.811 20.474 0 28.284l-50 50c-19.297 18.161-46.341-9.02-28.284-28.284 0 0 50-50 50-50 7.81-7.81 20.474-7.81 28.284 0z"/></svg>