<svg width="40" height="39" viewBox="0 0 40 39" fill="none" xmlns="http://www.w3.org/2000/svg">
<ellipse cx="20" cy="19.5" rx="20" ry="19.5" fill="#7D9995"/>
<path d="M23 23V21C23.4492 20.7773 24.7383 19.2461 24.8711 18.0469C25.2266 18.0195 25.7812 17.6953 25.9453 16.4141C26.0352 15.7227 25.6836 15.3359 25.4727 15.2148C25.4727 15.2148 26 14.2109 26 13C26 10.5742 25.0469 8.5 23 8.5C23 8.5 22.2891 7 20 7C15.7578 7 14 9.72266 14 13C14 14.1055 14.5273 15.2148 14.5273 15.2148C14.3164 15.3359 13.9648 15.7266 14.0547 16.4141C14.2188 17.6953 14.7734 18.0195 15.1289 18.0469C15.2617 19.2461 16.5508 20.7773 17 21V23C16 26 8 24 8 31H32C32 24 24 26 23 23Z" fill="white"/>
</svg>
