<svg id="Layer_1_1_" enable-background="new 0 0 256 256" height="512" viewBox="0 0 256 256" width="512" xmlns="http://www.w3.org/2000/svg"><path d="m21.246 254h26.925c2.358 0 4.575-.918 6.243-2.586s2.586-3.884 2.586-6.243v-8.63c0-2.232.197-4.48.587-6.693l5.125-30.18c16.062-1.465 41.111-6.461 46.315-7.52 11.416 9.626 31.194 21.214 44.244 28.456 3.981 2.21 8.289 3.573 12.802 4.053l33.624 3.577c4.281.455 8.364 2.062 11.809 4.645l1.321.991-1.592 9.554-3.717 1.062c-2.071.592-3.518 2.509-3.518 4.664 0 2.674 2.176 4.85 4.85 4.85h8.415c3.058 0 5.844-1.92 6.934-4.778l6.315-16.577c.323-.846.486-1.735.486-2.642 0-3.277-2.105-6.127-5.237-7.091l-8.931-2.748-20.411-12.56c-3.791-2.333-7.94-3.872-12.334-4.575l-11.311-1.81c-4.573-.732-8.972-2.554-12.723-5.27l-16.296-11.8c-3.979-2.881-6.956-6.851-8.609-11.479l-.095-.265c-1.528-4.279-4.101-8.169-7.439-11.251l-5.042-4.654-2.572-6.863v-11.046l7.412-11.455c2.382-3.682 3.275-8.088 2.513-12.407l-1.734-9.83.986-3.135c9.413-1.738 13.114-11.591 13.25-11.967.262-.65.492-1.313.703-1.983.69.134 1.388.203 2.084.203 2.386 0 4.749-.778 6.69-2.284 4.759-3.689 5.63-10.562 1.941-15.322-3.115-4.018-8.589-5.278-13.1-3.253-.104-.126-.196-.24-.308-.375-.067-.081-.122-.148-.186-.225l10.493-33.432 9.47-8.42c1.137-.917 1.787-2.276 1.787-3.74 0-1.5-.681-2.887-1.868-3.804-1.188-.917-2.7-1.226-4.152-.847l-.718.187 1.405-4.728c.479-1.614.25-3.362-.632-4.796-.881-1.435-2.337-2.43-3.992-2.731l-.33-.061c-2.425-.437-4.901.687-6.161 2.805l-4.722 7.942c-.949 1.595-1.533 3.417-1.687 5.268l-.776 9.316-12.263 29.235c-5.26-1.164-11.617 2.102-13.943 4.593-2.959 3.167-4.737 8.058-5.309 9.811l-5.017 3.889c-.795.616-1.009 1.726-.5 2.593l2.105 3.587c-.694 1.575-1.86 4.617-1.702 6.967.147 2.199 3.167 7.792 8.342 9.186l-.583 1.485-13.487 6.181c-4.844 2.22-8.452 6.646-9.65 11.839-.953 4.131-.36 8.455 1.669 12.177l2.929 5.369-.944 11.333-1.989 12.931c-.094.61.099 1.229.523 1.678.071.075.152.138.233.201l-.328.868-42.949 15.981c-3.878 1.268-6.423 4.999-6.188 9.073l2.197 38.088c.29 5.022-.39 9.964-2.021 14.705l-19.273 4.344c-1.894.474-3.217 2.167-3.217 4.12-.003 2.344 1.902 4.249 4.243 4.249zm193.706-30.297c.144.089.299.159.46.208l9.174 2.823c1.444.444 2.414 1.758 2.414 3.268 0 .418-.075.828-.224 1.218l-6.315 16.578c-.502 1.317-1.786 2.202-3.195 2.202h-8.415c-.469 0-.85-.381-.85-.85 0-.377.253-.714.617-.818l4.933-1.409c.743-.212 1.296-.833 1.423-1.594l2-12c.123-.737-.175-1.48-.773-1.929l-2.294-1.721c-4.021-3.016-8.789-4.891-13.786-5.422l-23.78-2.53c1.089-3.868 4.626-10.373 7.299-14.715 3.804.632 7.399 1.974 10.686 3.997zm-76.26-135.34c-.028.076-2.437 6.468-8.071 8.807l8.174-25.983c.005.008.013.021.017.029 2.177 4.845 2.14 11.551-.12 17.147zm11.991-15.5c2.337 3.016 1.786 7.372-1.23 9.71-1.544 1.197-3.508 1.657-5.397 1.337.75-4.597.363-9.316-1.171-13.307 2.753-.984 5.938-.139 7.798 2.26zm-8.505-42.09c.081-.193.131-.398.149-.607l.802-9.631c.104-1.249.498-2.479 1.139-3.556l4.722-7.942c.351-.59.992-.945 1.665-.945.113 0 .228.01.341.031l.33.061c.548.1 1.01.416 1.301.89s.364 1.029.206 1.563l-2.417 8.128c-.206.692-.022 1.441.479 1.96.502.519 1.246.729 1.943.545l4.151-1.083c.333-.085.58.052.697.143.117.09.314.294.314.639 0 .25-.113.481-.309.635-.033.025-.064.052-.096.08l-9.924 8.824c-.271.241-.471.55-.579.896l-11.089 35.333-15.029 47.78c-.777 2.792-3.438 4.571-6.309 4.246-1.825-.21-3.413-1.236-4.354-2.813-.942-1.577-1.092-3.46-.409-5.176l18.966-48.264zm-17.623 31.771-3.719 9.463c-2.07-2.376-4.293-4.648-5.666-6.013 1.508-1.53 5.923-3.829 9.385-3.45zm-18.826 27.382c-.104-1.544 1.021-4.444 1.755-5.91.303-.605.28-1.325-.063-1.909l-1.747-2.977 4.125-3.198c.336-.26.58-.621.697-1.029.011-.04.83-2.841 2.333-5.591 1.668 1.678 4.219 4.33 6.269 6.832l.163-.134-7.698 19.59c-3.625-.662-5.734-4.935-5.834-5.674zm-15.473 29.858c.921-3.993 3.695-7.396 7.42-9.102l9.711-4.451-1.205 3.067c-1.145 2.873-.892 6.043.694 8.699s4.258 4.381 7.331 4.736c.388.045.773.067 1.156.066 4.385 0 8.26-2.885 9.446-7.149l.779-2.478.397 2.252c.586 3.32-.1 6.708-1.932 9.539l-7.732 11.95c-.21.324-.321.701-.321 1.087v12c0 .24.043.478.127.702l2.084 5.558-25.844 2.501 1.609-10.458c.007-.046.013-.092.017-.138l1-12c.032-.39-.05-.78-.237-1.124l-3.216-5.896c-1.561-2.86-2.017-6.185-1.284-9.361zm-43.435 63.415 43.876-16.325c.541-.201.969-.626 1.173-1.167l1.132-2.989 27.525-2.664 4.374 4.038c2.865 2.645 5.073 5.984 6.385 9.658l.095.265c1.925 5.391 5.394 10.015 10.03 13.373l16.296 11.8c4.255 3.081 9.248 5.149 14.437 5.98l7.234 1.157c-2.202 3.691-5.933 10.37-7.05 14.974l-5.832-.62c-3.977-.423-7.773-1.625-11.283-3.573-29.372-16.3-48.446-29.83-51.025-36.192l-3.707 1.503c.76 1.875 2.464 4.041 4.848 6.389-10.86 2.143-41.825 7.998-52.175 7.199l-.307 3.988c.722.056 1.53.082 2.416.082 1.017 0 2.14-.037 3.34-.102l-.634 3.732c-7.217-.124-12.138-2.387-13.967-3.387l-.695-12.052c-.13-2.263 1.283-4.336 3.514-5.067zm-25.679 66.327 20.298-4.575c.657-.148 1.196-.618 1.433-1.249 2.089-5.571 2.975-11.408 2.632-17.347l-1.238-21.46c2.778 1.205 7.213 2.603 13.027 2.787l-3.648 21.483c-.428 2.429-.646 4.911-.646 7.375v8.63c0 1.29-.502 2.502-1.414 3.415-.912.912-2.125 1.414-3.415 1.414h-26.925c-.136.001-.246-.109-.246-.245 0-.113.077-.212.142-.228z"/></svg>